<?xml version="1.0" encoding="utf-8"?>
<!-- Generator: Adobe Illustrator 16.0.0, SVG Export Plug-In . SVG Version: 6.00 Build 0)  -->
<!DOCTYPE svg PUBLIC "-//W3C//DTD SVG 1.1//EN" "http://www.w3.org/Graphics/SVG/1.1/DTD/svg11.dtd">
<svg version="1.1" id="Layer_1" xmlns="http://www.w3.org/2000/svg" xmlns:xlink="http://www.w3.org/1999/xlink" x="0px" y="0px"
	 width="80px" height="80px" viewBox="0 0 80 80" enable-background="new 0 0 80 80" xml:space="preserve">
<g>
	<defs>
		<rect id="SVGID_1_" width="80" height="80"/>
	</defs>
	<clipPath id="SVGID_2_">
		<use xlink:href="#SVGID_1_"  overflow="visible"/>
	</clipPath>
	<path clip-path="url(#SVGID_2_)" fill="#2FB44A" d="M37.433,57.771L13.846,37.183c-1.51-1.317-1.665-3.609-0.348-5.119
		c0.689-0.79,1.686-1.243,2.734-1.243h47.173c2.005,0,3.63,1.625,3.63,3.629c0,1.048-0.454,2.045-1.243,2.733L42.205,57.771
		C40.838,58.965,38.8,58.965,37.433,57.771"/>
	<path clip-path="url(#SVGID_2_)" fill="#2FB44A" d="M32.87,8.25h15.153c0.668,0,1.21,0.542,1.21,1.21v23.715
		c0,0.668-0.542,1.21-1.21,1.21H32.87c-0.668,0-1.209-0.542-1.209-1.21V9.46C31.661,8.792,32.202,8.25,32.87,8.25"/>
	<rect x="17.853" y="65.811" clip-path="url(#SVGID_2_)" fill="#2FB44A" width="45.186" height="5.939"/>
</g>
</svg>
