<?xml version="1.0" encoding="utf-8"?>
<!-- Generator: Adobe Illustrator 16.0.0, SVG Export Plug-In . SVG Version: 6.00 Build 0)  -->
<!DOCTYPE svg PUBLIC "-//W3C//DTD SVG 1.1//EN" "http://www.w3.org/Graphics/SVG/1.1/DTD/svg11.dtd">
<svg version="1.1" id="Layer_1" xmlns="http://www.w3.org/2000/svg" xmlns:xlink="http://www.w3.org/1999/xlink" x="0px" y="0px"
	 width="80px" height="80px" viewBox="0 0 80 80" enable-background="new 0 0 80 80" xml:space="preserve">
<g>
	<defs>
		<rect id="SVGID_1_" width="80" height="80"/>
	</defs>
	<clipPath id="SVGID_2_">
		<use xlink:href="#SVGID_1_"  overflow="visible"/>
	</clipPath>
	<path clip-path="url(#SVGID_2_)" fill="#F5F6F6" d="M39.954,71.692c-17.56,0-31.846-14.286-31.846-31.846S22.394,8,39.954,8
		S71.8,22.286,71.8,39.846S57.514,71.692,39.954,71.692 M39.954,10.847c-15.99,0-28.999,13.009-28.999,28.999
		s13.009,28.999,28.999,28.999c15.99,0,28.999-13.009,28.999-28.999S55.943,10.847,39.954,10.847"/>
	<path clip-path="url(#SVGID_2_)" fill="#27B34B" d="M28.713,52.51c-0.364,0-0.729-0.139-1.006-0.417
		c-0.556-0.556-0.556-1.457,0-2.014l22.479-22.48c0.558-0.556,1.458-0.555,2.015,0c0.556,0.556,0.556,1.457,0,2.014L29.72,52.093
		C29.442,52.371,29.078,52.51,28.713,52.51"/>
	<path clip-path="url(#SVGID_2_)" fill="#27B34B" d="M51.193,52.51c-0.363,0-0.729-0.139-1.007-0.417l-22.479-22.48
		c-0.556-0.557-0.556-1.458,0-2.014c0.555-0.556,1.457-0.556,2.013,0l22.481,22.48c0.556,0.557,0.556,1.458,0,2.014
		C51.923,52.371,51.559,52.51,51.193,52.51"/>
</g>
</svg>
