<?xml version="1.0" encoding="utf-8"?>
<!-- Generator: Adobe Illustrator 16.0.0, SVG Export Plug-In . SVG Version: 6.00 Build 0)  -->
<!DOCTYPE svg PUBLIC "-//W3C//DTD SVG 1.1//EN" "http://www.w3.org/Graphics/SVG/1.1/DTD/svg11.dtd">
<svg version="1.1" id="Layer_1" xmlns="http://www.w3.org/2000/svg" xmlns:xlink="http://www.w3.org/1999/xlink" x="0px" y="0px"
	 width="80px" height="80px" viewBox="0 0 80 80" enable-background="new 0 0 80 80" xml:space="preserve">
<g>
	<defs>
		<rect id="SVGID_1_" width="80" height="80"/>
	</defs>
	<clipPath id="SVGID_2_">
		<use xlink:href="#SVGID_1_"  overflow="visible"/>
	</clipPath>
	<path clip-path="url(#SVGID_2_)" fill="#2FB44A" d="M25.562,9.901c-3.371-2.938-8.314,1.993-4.922,4.949
		c9.695,8.45,19.391,16.9,29.087,25.35C40.03,48.649,30.334,57.099,20.64,65.549c-3.391,2.956,1.551,7.889,4.922,4.949
		c10.643-9.274,21.284-18.549,31.926-27.823c1.352-1.178,1.349-3.774,0-4.949C46.846,28.45,36.205,19.175,25.562,9.901"/>
	<path clip-path="url(#SVGID_2_)" fill="none" stroke="#2FB44A" d="M25.562,9.901c-3.371-2.938-8.314,1.993-4.922,4.949
		c9.695,8.45,19.391,16.9,29.087,25.35C40.03,48.649,30.334,57.099,20.64,65.549c-3.391,2.956,1.551,7.889,4.922,4.949
		c10.643-9.274,21.284-18.549,31.926-27.823c1.352-1.178,1.349-3.774,0-4.949C46.846,28.45,36.205,19.175,25.562,9.901z"/>
</g>
</svg>
