<?xml version="1.0" encoding="utf-8"?>
<!-- Generator: Adobe Illustrator 16.0.0, SVG Export Plug-In . SVG Version: 6.00 Build 0)  -->
<!DOCTYPE svg PUBLIC "-//W3C//DTD SVG 1.1//EN" "http://www.w3.org/Graphics/SVG/1.1/DTD/svg11.dtd">
<svg version="1.1" id="Layer_1" xmlns="http://www.w3.org/2000/svg" xmlns:xlink="http://www.w3.org/1999/xlink" x="0px" y="0px"
	 width="80px" height="80px" viewBox="0 0 80 80" enable-background="new 0 0 80 80" xml:space="preserve">
<g>
	<defs>
		<rect id="SVGID_1_" width="80" height="80"/>
	</defs>
	<clipPath id="SVGID_2_">
		<use xlink:href="#SVGID_1_"  overflow="visible"/>
	</clipPath>
	<path clip-path="url(#SVGID_2_)" fill="#1D1B50" d="M39.979,72.101c-17.657,0-32.022-14.364-32.022-32.021
		S22.321,8.058,39.979,8.058c17.656,0,32.021,14.364,32.021,32.021S57.635,72.101,39.979,72.101 M39.979,10.92
		c-16.078,0-29.159,13.081-29.159,29.159S23.9,69.237,39.979,69.237s29.158-13.08,29.158-29.158S56.057,10.92,39.979,10.92"/>
	<path clip-path="url(#SVGID_2_)" fill="#4683C4" d="M55.67,38.2c-0.664,0-1.259-0.465-1.4-1.141
		c-1.413-6.783-7.475-11.707-14.415-11.707S26.853,30.276,25.44,37.059c-0.162,0.775-0.92,1.27-1.694,1.111
		c-0.774-0.161-1.27-0.92-1.109-1.694c1.687-8.104,8.929-13.986,17.218-13.986c8.289,0,15.531,5.882,17.218,13.986
		c0.161,0.774-0.336,1.533-1.109,1.694C55.865,38.19,55.767,38.2,55.67,38.2"/>
	<path clip-path="url(#SVGID_2_)" fill="#4683C4" d="M23.922,38.37c-0.557,0-1.086-0.326-1.317-0.871l-2.646-6.211
		c-0.309-0.728,0.028-1.568,0.756-1.878s1.568,0.028,1.878,0.756l2.085,4.894l4.894-2.085c0.727-0.309,1.569,0.029,1.878,0.756
		c0.31,0.728-0.029,1.569-0.757,1.878l-6.21,2.646C24.3,38.333,24.109,38.37,23.922,38.37"/>
	<path clip-path="url(#SVGID_2_)" fill="#4683C4" d="M39.854,57.668c-8.289,0-15.53-5.882-17.218-13.986
		c-0.161-0.774,0.335-1.532,1.11-1.693c0.773-0.159,1.532,0.336,1.693,1.109c1.413,6.784,7.476,11.707,14.415,11.707
		c6.94,0,13.003-4.923,14.415-11.707c0.162-0.773,0.919-1.27,1.694-1.109c0.773,0.161,1.271,0.919,1.109,1.693
		C55.386,51.786,48.144,57.668,39.854,57.668"/>
	<path clip-path="url(#SVGID_2_)" fill="#4683C4" d="M58.435,50.863c-0.557,0-1.086-0.327-1.317-0.871l-2.085-4.895l-4.895,2.085
		c-0.728,0.309-1.567-0.028-1.878-0.756c-0.31-0.728,0.029-1.568,0.756-1.879l6.212-2.646c0.35-0.148,0.743-0.152,1.096-0.011
		c0.352,0.142,0.634,0.418,0.782,0.768l2.646,6.211c0.31,0.728-0.028,1.568-0.756,1.878C58.812,50.826,58.622,50.863,58.435,50.863"
		/>
</g>
</svg>
