<?xml version="1.0" encoding="utf-8"?>
<!-- Generator: Adobe Illustrator 16.0.0, SVG Export Plug-In . SVG Version: 6.00 Build 0)  -->
<!DOCTYPE svg PUBLIC "-//W3C//DTD SVG 1.1//EN" "http://www.w3.org/Graphics/SVG/1.1/DTD/svg11.dtd">
<svg version="1.1" id="Layer_1" xmlns="http://www.w3.org/2000/svg" xmlns:xlink="http://www.w3.org/1999/xlink" x="0px" y="0px"
	 width="80px" height="80px" viewBox="0 0 80 80" enable-background="new 0 0 80 80" xml:space="preserve">
<g>
	<g>
		<defs>
			<rect id="SVGID_1_" width="80" height="80"/>
		</defs>
		<clipPath id="SVGID_2_">
			<use xlink:href="#SVGID_1_"  overflow="visible"/>
		</clipPath>
		<path clip-path="url(#SVGID_2_)" fill="#010101" d="M40.665,8.861c17.167,0,31.085,13.918,31.085,31.086
			c0,17.168-13.918,31.085-31.085,31.085c-17.168,0-31.085-13.917-31.085-31.085C9.58,22.779,23.497,8.861,40.665,8.861"/>
	</g>
	<g>
		<defs>
			<rect id="SVGID_3_" width="80" height="80"/>
		</defs>
		<clipPath id="SVGID_4_">
			<use xlink:href="#SVGID_3_"  overflow="visible"/>
		</clipPath>
		<path clip-path="url(#SVGID_4_)" fill="#FFFFFF" d="M40.665,8.861c17.167,0,31.085,13.918,31.085,31.086
			c0,17.168-13.918,31.085-31.085,31.085c-17.168,0-31.085-13.917-31.085-31.085C9.58,22.779,23.497,8.861,40.665,8.861"/>
	</g>
	<g>
		<defs>
			<rect id="SVGID_5_" width="80" height="80"/>
		</defs>
		<clipPath id="SVGID_6_">
			<use xlink:href="#SVGID_5_"  overflow="visible"/>
		</clipPath>
		<path clip-path="url(#SVGID_6_)" fill="#A5CF59" d="M38.273,9.818c15.319,0,27.739,12.418,27.739,27.737
			c0,15.32-12.42,27.738-27.739,27.738S10.536,52.875,10.536,37.555C10.537,22.236,22.955,9.818,38.273,9.818"/>
	</g>
	<g>
		<defs>
			<rect id="SVGID_7_" width="80" height="80"/>
		</defs>
		<clipPath id="SVGID_8_">
			<use xlink:href="#SVGID_7_"  overflow="visible"/>
		</clipPath>
		<path clip-path="url(#SVGID_8_)" fill="#2CB34A" d="M62.646,17.974c-5.873-5.87-13.676-9.112-21.984-9.112
			c-8.309,0-16.11,3.242-21.983,9.112C7.348,29.299,6.528,47.393,16.621,59.655c-1.394,2.851-3.035,4.751-4.897,5.661
			c-1.133,0.561-1.771,1.783-1.589,3.033c0.195,1.264,1.159,2.239,2.422,2.436c0.691,0.104,1.433,0.17,2.202,0.17
			c3.816,0,7.827-1.314,11.174-3.62c4.506,2.422,9.572,3.697,14.729,3.697c8.311,0,16.111-3.229,21.984-9.101
			c5.873-5.869,9.104-13.681,9.104-21.973S68.521,23.845,62.646,17.974 M60.159,59.434c-5.209,5.207-12.138,8.07-19.497,8.07
			c-4.922,0-9.754-1.314-13.961-3.787c-0.273-0.156-0.586-0.248-0.885-0.248c-0.378,0-0.769,0.131-1.081,0.365
			c-3.986,3.085-7.997,3.54-9.755,3.579c2.096-1.562,3.855-3.983,5.326-7.354c0.274-0.625,0.157-1.354-0.299-1.875
			c-9.638-10.882-9.13-27.466,1.159-37.75c5.209-5.206,12.138-8.07,19.496-8.07c7.359,0,14.288,2.864,19.497,8.07
			C70.916,31.2,70.916,48.693,60.159,59.434"/>
	</g>
</g>
<g>
	<path fill="#28B24B" d="M34.533,46.791c-0.214,0-0.43-0.081-0.593-0.245c-0.328-0.328-0.328-0.858,0-1.187l13.252-13.253
		c0.329-0.327,0.859-0.327,1.188,0c0.328,0.328,0.328,0.859,0,1.188L35.126,46.546C34.962,46.71,34.748,46.791,34.533,46.791"/>
	<path fill="#28B24B" d="M47.785,46.791c-0.214,0-0.43-0.081-0.594-0.245L33.939,33.294c-0.328-0.329-0.328-0.86,0-1.188
		c0.327-0.327,0.859-0.327,1.187,0l13.253,13.253c0.328,0.328,0.328,0.858,0,1.187C48.215,46.71,48,46.791,47.785,46.791"/>
</g>
</svg>
