<?xml version="1.0" encoding="utf-8"?>
<!-- Generator: Adobe Illustrator 16.0.0, SVG Export Plug-In . SVG Version: 6.00 Build 0)  -->
<!DOCTYPE svg PUBLIC "-//W3C//DTD SVG 1.1//EN" "http://www.w3.org/Graphics/SVG/1.1/DTD/svg11.dtd">
<svg version="1.1" id="Layer_1" xmlns="http://www.w3.org/2000/svg" xmlns:xlink="http://www.w3.org/1999/xlink" x="0px" y="0px"
	 width="80px" height="80px" viewBox="0 0 80 80" enable-background="new 0 0 80 80" xml:space="preserve">
<g>
	<defs>
		<rect id="SVGID_1_" width="80" height="80"/>
	</defs>
	<clipPath id="SVGID_2_">
		<use xlink:href="#SVGID_1_"  overflow="visible"/>
	</clipPath>
	<path clip-path="url(#SVGID_2_)" fill="#A5CF59" d="M38.075,66.339c-5.732,0-10.379-4.646-10.379-10.379
		s4.647-10.378,10.379-10.378c5.732,0,10.379,4.646,10.379,10.378C48.447,61.689,43.805,66.333,38.075,66.339"/>
	<path clip-path="url(#SVGID_2_)" fill="#04AA5B" d="M40.959,40.563v-3.385l3.013-3.041h0.008c1.451,0,5.971-0.251,8.877-3.184
		c2.576-2.596,3.305-6.574,3.101-10.304c-3.701-0.206-7.648,0.526-10.225,3.124c-2.908,2.931-3.156,7.469-3.156,8.941l-1.617,1.63
		v-8.431c1.025-1.033,4.043-4.427,4.043-8.577c0-3.672-2.278-7.004-5.039-9.495c-2.759,2.489-5.038,5.822-5.038,9.495
		c0,4.15,3.018,7.544,4.043,8.577v13.2l-1.617-1.63c0-1.472-0.248-6.01-3.158-8.938c-2.579-2.598-6.527-3.33-10.225-3.125
		c-0.204,3.729,0.522,7.708,3.1,10.305c2.911,2.934,7.425,3.184,8.877,3.184h0.007l1.772,1.785
		c-7.551,1.098-13.372,7.663-13.372,15.57C24.353,64.955,31.342,72,39.965,72c8.622,0,15.612-7.045,15.612-15.735
		C55.576,47.928,49.105,41.082,40.959,40.563 M47.139,25.194c2.055-2.071,5.281-2.498,6.87-2.578c-0.077,1.6-0.498,4.843-2.56,6.92
		c-2.061,2.078-5.28,2.498-6.869,2.578C44.656,30.516,45.076,27.272,47.139,25.194L47.139,25.194z M36.916,17.336
		c0-2.927,1.982-5.529,3.049-6.717c1.068,1.185,3.047,3.778,3.047,6.717s-1.982,5.529-3.048,6.718
		C38.894,22.869,36.916,20.275,36.916,17.336 M28.479,34.311c-2.053-2.069-2.479-5.318-2.558-6.921
		c1.591,0.08,4.815,0.509,6.867,2.577c2.051,2.067,2.478,5.322,2.558,6.923C33.759,36.813,30.54,36.393,28.479,34.311
		 M39.964,69.994c-7.523,0-13.623-6.146-13.623-13.729c0-7.582,6.1-13.729,13.623-13.729c7.522,0,13.622,6.146,13.622,13.729
		C53.577,63.844,47.484,69.986,39.964,69.994"/>
	<polygon clip-path="url(#SVGID_2_)" fill="#04AA5B" points="36.923,52.185 43.999,52.185 43.999,50.179 40.959,50.179 
		40.959,48.131 38.969,48.131 38.969,50.179 34.933,50.179 34.933,57.269 43.004,57.269 43.004,60.347 35.928,60.347 35.928,62.353 
		38.969,62.353 38.969,64.399 40.959,64.399 40.959,62.353 44.994,62.353 44.994,55.263 36.923,55.263 	"/>
</g>
</svg>
