<?xml version="1.0" encoding="utf-8"?>
<!-- Generator: Adobe Illustrator 16.0.0, SVG Export Plug-In . SVG Version: 6.00 Build 0)  -->
<!DOCTYPE svg PUBLIC "-//W3C//DTD SVG 1.1//EN" "http://www.w3.org/Graphics/SVG/1.1/DTD/svg11.dtd">
<svg version="1.1" id="Layer_1" xmlns="http://www.w3.org/2000/svg" xmlns:xlink="http://www.w3.org/1999/xlink" x="0px" y="0px"
	 width="80px" height="80px" viewBox="0 0 80 80" enable-background="new 0 0 80 80" xml:space="preserve">
<polygon fill="#A5CF59" points="23.273,67.019 23.273,14.977 51.577,14.977 51.577,22.736 59.211,22.736 59.211,67.019 "/>
<path fill="#04AA5B" d="M55.131,9.194H17.523v62.161h46v-53.7L55.131,9.194z M55.696,12.51l4.539,4.576h-4.539V12.51z M19.45,69.413
	V11.137H53.77v7.891h7.827v50.385H19.45z"/>
<rect x="37.572" y="58.588" fill="#04AA5B" width="14.843" height="2.268"/>
<g>
	<defs>
		<rect id="SVGID_1_" width="80" height="80"/>
	</defs>
	<clipPath id="SVGID_2_">
		<use xlink:href="#SVGID_1_"  overflow="visible"/>
	</clipPath>
	<path clip-path="url(#SVGID_2_)" fill="#FFFFFF" d="M30.722,32.523c1.892,0,3.425,1.269,3.425,2.833s-1.533,2.833-3.425,2.833
		s-3.425-1.269-3.425-2.833S28.83,32.523,30.722,32.523"/>
	<path clip-path="url(#SVGID_2_)" fill="#FFFFFF" d="M30.722,44.989c1.892,0,3.425,1.269,3.425,2.833s-1.533,2.833-3.425,2.833
		s-3.425-1.269-3.425-2.833S28.83,44.989,30.722,44.989"/>
	<path clip-path="url(#SVGID_2_)" fill="#FFFFFF" d="M30.722,57.455c1.892,0,3.425,1.269,3.425,2.833s-1.533,2.833-3.425,2.833
		s-3.425-1.269-3.425-2.833S28.83,57.455,30.722,57.455"/>
	<path clip-path="url(#SVGID_2_)" fill="#04AA5B" d="M30.151,56.321c-2.207,0-3.996,1.776-3.996,3.967s1.789,3.966,3.996,3.966
		s3.996-1.775,3.996-3.966C34.146,58.099,32.357,56.324,30.151,56.321 M30.151,62.562c-1.266,0-2.292-1.018-2.292-2.273
		s1.026-2.274,2.292-2.274c1.265,0,2.291,1.019,2.291,2.274C32.441,61.543,31.417,62.561,30.151,62.562"/>
	<rect x="37.572" y="46.122" clip-path="url(#SVGID_2_)" fill="#04AA5B" width="14.843" height="2.267"/>
	<path clip-path="url(#SVGID_2_)" fill="#04AA5B" d="M30.151,43.855c-2.207,0-3.996,1.776-3.996,3.967s1.789,3.966,3.996,3.966
		s3.996-1.775,3.996-3.966C34.146,45.633,32.357,43.858,30.151,43.855 M30.151,50.097c-1.266,0-2.292-1.019-2.292-2.274
		s1.026-2.274,2.292-2.274c1.265,0,2.291,1.019,2.291,2.274C32.441,49.078,31.417,50.095,30.151,50.097"/>
	<rect x="37.572" y="34.79" clip-path="url(#SVGID_2_)" fill="#04AA5B" width="14.843" height="2.267"/>
	<path clip-path="url(#SVGID_2_)" fill="#04AA5B" d="M30.151,31.39c-2.207,0-3.996,1.776-3.996,3.967
		c0,2.19,1.789,3.966,3.996,3.966s3.996-1.776,3.996-3.966C34.146,33.167,32.357,31.393,30.151,31.39 M30.151,37.631
		c-1.266,0-2.292-1.019-2.292-2.274c0-1.256,1.026-2.275,2.292-2.275c1.265,0,2.291,1.019,2.291,2.275
		C32.441,36.612,31.417,37.629,30.151,37.631"/>
</g>
</svg>
