<?xml version="1.0" encoding="utf-8"?>
<!-- Generator: Adobe Illustrator 16.0.0, SVG Export Plug-In . SVG Version: 6.00 Build 0)  -->
<!DOCTYPE svg PUBLIC "-//W3C//DTD SVG 1.1//EN" "http://www.w3.org/Graphics/SVG/1.1/DTD/svg11.dtd">
<svg version="1.1" id="Layer_1" xmlns="http://www.w3.org/2000/svg" xmlns:xlink="http://www.w3.org/1999/xlink" x="0px" y="0px"
	 width="80px" height="80px" viewBox="0 0 80 80" enable-background="new 0 0 80 80" xml:space="preserve">
<g>
	<defs>
		<rect id="SVGID_1_" width="80" height="80"/>
	</defs>
	<clipPath id="SVGID_2_">
		<use xlink:href="#SVGID_1_"  overflow="visible"/>
	</clipPath>
	<path clip-path="url(#SVGID_2_)" fill="#010101" d="M40.665,8.861c17.167,0,31.085,13.918,31.085,31.086
		S57.832,71.032,40.665,71.032c-17.168,0-31.085-13.917-31.085-31.085S23.497,8.861,40.665,8.861"/>
	<path clip-path="url(#SVGID_2_)" fill="#FFFFFF" d="M40.665,8.861c17.167,0,31.085,13.918,31.085,31.086
		S57.832,71.032,40.665,71.032c-17.168,0-31.085-13.917-31.085-31.085S23.497,8.861,40.665,8.861"/>
	<path clip-path="url(#SVGID_2_)" fill="#A5CF59" d="M38.273,9.818c15.319,0,27.738,12.418,27.738,27.737
		c0,15.32-12.419,27.738-27.738,27.738c-15.319,0-27.737-12.418-27.737-27.738C10.537,22.236,22.955,9.818,38.273,9.818"/>
	<path clip-path="url(#SVGID_2_)" fill="#2CB34A" d="M62.646,17.974c-5.873-5.87-13.675-9.112-21.984-9.112
		c-8.309,0-16.11,3.242-21.983,9.112C7.348,29.299,6.528,47.393,16.621,59.655c-1.394,2.851-3.035,4.751-4.897,5.662
		c-1.133,0.56-1.771,1.783-1.589,3.033c0.195,1.263,1.159,2.239,2.422,2.435c0.691,0.104,1.433,0.17,2.202,0.17
		c3.816,0,7.827-1.315,11.174-3.62c4.506,2.422,9.572,3.697,14.729,3.697c8.31,0,16.111-3.229,21.984-9.1
		c5.874-5.87,9.104-13.681,9.104-21.973C71.75,31.667,68.521,23.845,62.646,17.974 M60.159,59.434
		c-5.209,5.207-12.138,8.07-19.497,8.07c-4.922,0-9.754-1.314-13.961-3.787c-0.273-0.156-0.586-0.248-0.885-0.248
		c-0.378,0-0.769,0.131-1.081,0.365c-3.986,3.085-7.997,3.54-9.755,3.579c2.096-1.562,3.855-3.983,5.326-7.354
		c0.274-0.625,0.157-1.354-0.299-1.875c-9.638-10.882-9.13-27.466,1.159-37.75c5.209-5.206,12.138-8.07,19.496-8.07
		c7.359,0,14.288,2.864,19.497,8.07C70.916,31.2,70.916,48.694,60.159,59.434"/>
	<path clip-path="url(#SVGID_2_)" fill="#2CB34A" d="M49.514,27.034H31.816c-0.663,0-1.194,1.275-1.194,2.87
		c0,1.594,0.531,2.869,1.194,2.869h17.697c0.663,0,1.193-1.275,1.193-2.869C50.707,28.309,50.168,27.034,49.514,27.034"/>
	<path clip-path="url(#SVGID_2_)" fill="#2CB34A" d="M49.514,36.6H31.816c-0.663,0-1.194,1.275-1.194,2.869
		c0,1.594,0.531,2.869,1.194,2.869h17.697c0.663,0,1.193-1.275,1.193-2.869C50.707,37.875,50.168,36.6,49.514,36.6"/>
	<path clip-path="url(#SVGID_2_)" fill="#2CB34A" d="M49.514,46.164H31.816c-0.663,0-1.194,1.275-1.194,2.869
		c0,1.595,0.531,2.869,1.194,2.869h17.697c0.663,0,1.193-1.274,1.193-2.869C50.707,47.439,50.168,46.164,49.514,46.164"/>
</g>
</svg>
