<svg id="Layer_1" data-name="Layer 1" xmlns="http://www.w3.org/2000/svg" viewBox="0 0 80 80"><defs><style>.cls-1{fill:#a7a6a6;}.cls-2{fill:#010101;}.cls-3{fill:#fff;}</style></defs><title>appstore</title><g id="Home-Menu-1.1.0"><g id="Download_on_the_App_Store_Badge_US-UK_RGB_blk_092917" data-name="Download on the App Store Badge US-UK RGB blk 092917"><g id="Group"><g id="Shape"><path class="cls-1" d="M66.45,30.12H11.62a7.89,7.89,0,0,0-1.08.1,3.63,3.63,0,0,0-1,.33,3.87,3.87,0,0,0-.87.63,3.45,3.45,0,0,0-1,1.88,7.89,7.89,0,0,0-.1,1.07V47.48a7.6,7.6,0,0,0,.1,1.07,3.36,3.36,0,0,0,1,1.88,3.33,3.33,0,0,0,.87.63,3.65,3.65,0,0,0,1,.34,6.56,6.56,0,0,0,1.08.09h55.9a6.35,6.35,0,0,0,1.07-.09,3.6,3.6,0,0,0,1-.34,3.33,3.33,0,0,0,.87-.63,3.36,3.36,0,0,0,1-1.88,7.6,7.6,0,0,0,.1-1.07V34.14a7.89,7.89,0,0,0-.1-1.07,3.63,3.63,0,0,0-.33-1,3.4,3.4,0,0,0-1.5-1.5,3.59,3.59,0,0,0-1-.33,7.6,7.6,0,0,0-1.07-.1H66.45Z"/><path class="cls-2" d="M12.11,51h-.48a8.26,8.26,0,0,1-1-.09,3.1,3.1,0,0,1-.89-.29A2.85,2.85,0,0,1,9,50.1a2.64,2.64,0,0,1-.55-.74,3.1,3.1,0,0,1-.29-.89,6.64,6.64,0,0,1-.09-1c0-.11,0-.49,0-.49V34.64s0-.37,0-.48a6.64,6.64,0,0,1,.09-1,3.1,3.1,0,0,1,.29-.89A2.88,2.88,0,0,1,9.74,31a3.1,3.1,0,0,1,.89-.29,5.55,5.55,0,0,1,1-.09H67.52a5.52,5.52,0,0,1,1,.09,3.1,3.1,0,0,1,.89.29,2.93,2.93,0,0,1,1.29,1.29,3.14,3.14,0,0,1,.29.88,6.89,6.89,0,0,1,.09,1v.48c0,.2,0,.39,0,.58V46.4c0,.2,0,.39,0,.58v.5a6.62,6.62,0,0,1-.09,1,3.1,3.1,0,0,1-.29.89,3,3,0,0,1-.54.74,3.15,3.15,0,0,1-.75.55,3.1,3.1,0,0,1-.89.29,8.26,8.26,0,0,1-1,.09H12.11Z"/></g><g id="_Group_" data-name=" Group "><g id="_Group_2" data-name=" Group 2"><g id="_Group_3" data-name=" Group 3"><path id="_Path_" data-name=" Path " class="cls-3" d="M20.83,41a2.66,2.66,0,0,1,1.26-2.22A2.71,2.71,0,0,0,20,37.6c-.9-.09-1.77.54-2.23.54s-1.17-.53-1.92-.51a2.82,2.82,0,0,0-2.39,1.45c-1,1.79-.27,4.42.72,5.87.5.71,1.08,1.5,1.84,1.47S17,46,17.89,46s1.14.47,1.92.45,1.29-.71,1.77-1.42a5.81,5.81,0,0,0,.81-1.66A2.56,2.56,0,0,1,20.83,41Z"/><path id="_Path_2" data-name=" Path 2" class="cls-3" d="M19.37,36.65a2.59,2.59,0,0,0,.6-1.87,2.68,2.68,0,0,0-1.72.89,2.52,2.52,0,0,0-.61,1.8A2.23,2.23,0,0,0,19.37,36.65Z"/></g></g><g id="Group-2" data-name="Group"><path id="Shape-2" data-name="Shape" class="cls-3" d="M30.2,44.63H27.67l-.6,1.79H26l2.4-6.63H29.5l2.4,6.63H30.81Zm-2.26-.83h2l-1-2.91h0Z"/><path id="Shape-3" data-name="Shape" class="cls-3" d="M37.07,44c0,1.51-.8,2.47-2,2.47a1.65,1.65,0,0,1-1.52-.84h0V48h-1V41.58h1v.81h0A1.7,1.7,0,0,1,35,41.53C36.26,41.53,37.07,42.5,37.07,44Zm-1,0c0-1-.5-1.62-1.28-1.62S33.51,43,33.51,44s.51,1.63,1.26,1.63S36.05,45,36.05,44Z"/><path id="Shape-4" data-name="Shape" class="cls-3" d="M42.4,44c0,1.51-.81,2.47-2,2.47a1.63,1.63,0,0,1-1.52-.84h0V48h-1V41.58h1v.81h0a1.72,1.72,0,0,1,1.54-.86C41.59,41.53,42.4,42.5,42.4,44Zm-1,0c0-1-.51-1.62-1.28-1.62S38.83,43,38.83,44s.51,1.63,1.27,1.63S41.38,45,41.38,44Z"/><path id="Shape-5" data-name="Shape" class="cls-3" d="M45.92,44.57c.07.66.71,1.09,1.58,1.09s1.44-.43,1.44-1-.36-.83-1.22-1l-.86-.21c-1.22-.29-1.78-.86-1.78-1.78,0-1.15,1-1.94,2.41-1.94a2.13,2.13,0,0,1,2.4,1.94h-1c-.06-.67-.6-1.07-1.4-1.07s-1.35.41-1.35,1,.35.74,1.2,1l.74.18c1.36.33,1.92.87,1.92,1.84,0,1.24-1,2-2.56,2s-2.46-.76-2.53-2Z"/><path id="Shape-6" data-name="Shape" class="cls-3" d="M52.14,40.44v1.14h.92v.79h-.92V45c0,.41.18.6.59.6l.32,0v.78a2.5,2.5,0,0,1-.55.05c-1,0-1.36-.37-1.36-1.31V42.37h-.7v-.79h.7V40.44Z"/><path id="Shape-7" data-name="Shape" class="cls-3" d="M53.59,44a2.3,2.3,0,1,1,4.59,0,2.3,2.3,0,1,1-4.59,0Zm3.58,0c0-1-.48-1.66-1.29-1.66S54.6,43,54.6,44s.48,1.66,1.28,1.66,1.29-.61,1.29-1.66Z"/><path id="Shape-8" data-name="Shape" class="cls-3" d="M59,41.58h1v.83h0a1.16,1.16,0,0,1,1.16-.88,1.27,1.27,0,0,1,.34,0v.93a1.09,1.09,0,0,0-.44-.06,1,1,0,0,0-1,1.11v2.87H59Z"/><path id="Shape-9" data-name="Shape" class="cls-3" d="M66.05,45A1.94,1.94,0,0,1,64,46.48,2.2,2.2,0,0,1,61.69,44a2.23,2.23,0,0,1,2.24-2.51,2.14,2.14,0,0,1,2.18,2.39v.34H62.69v.06a1.26,1.26,0,0,0,.34,1,1.28,1.28,0,0,0,1,.39A1.09,1.09,0,0,0,65.11,45Zm-3.36-1.44h2.42a1.19,1.19,0,0,0-.32-.88,1.17,1.17,0,0,0-.86-.35,1.23,1.23,0,0,0-1.24,1.23Z"/></g></g></g><g id="_Group_4" data-name=" Group 4"><g id="Group-3" data-name="Group"><path id="Shape-10" data-name="Shape" class="cls-3" d="M27.81,34.79a1.6,1.6,0,0,1,0,3.19H26.66V34.79Zm-.66,2.74h.61a1,1,0,0,0,.79-.33,1,1,0,0,0,.26-.82,1,1,0,0,0-.26-.82,1,1,0,0,0-.79-.32h-.61Z"/><path id="Shape-11" data-name="Shape" class="cls-3" d="M29.87,36.77a1.14,1.14,0,1,1,2.27,0,1.13,1.13,0,0,1-.53,1.08,1.14,1.14,0,0,1-1.74-1.08Zm1.78,0c0-.52-.23-.82-.64-.82s-.65.3-.65.82.23.83.65.83.64-.3.64-.83Z"/><polygon id="Shape-12" data-name="Shape" class="cls-3" points="35.16 37.98 34.66 37.98 34.17 36.21 34.13 36.21 33.63 37.98 33.15 37.98 32.48 35.57 32.97 35.57 33.4 37.41 33.43 37.41 33.93 35.57 34.38 35.57 34.88 37.41 34.91 37.41 35.34 35.57 35.82 35.57 35.16 37.98"/><path id="Shape-13" data-name="Shape" class="cls-3" d="M36.38,35.57h.45V36h0a.71.71,0,0,1,.72-.42.79.79,0,0,1,.63.24.82.82,0,0,1,.2.65V38h-.48V36.54c0-.39-.16-.58-.51-.58a.55.55,0,0,0-.58.61V38h-.47Z"/><polygon id="Shape-14" data-name="Shape" class="cls-3" points="39.18 34.63 39.65 34.63 39.65 37.98 39.18 37.98 39.18 34.63"/><path id="Shape-15" data-name="Shape" class="cls-3" d="M40.31,36.77a1.14,1.14,0,0,1,1.74-1.07,1.36,1.36,0,0,1,0,2.15,1.14,1.14,0,0,1-1.74-1.08Zm1.78,0c0-.52-.23-.82-.64-.82s-.65.3-.65.82.23.83.65.83.64-.3.64-.83Z"/><path id="Shape-16" data-name="Shape" class="cls-3" d="M43.08,37.3c0-.44.32-.68.9-.72l.65,0v-.21c0-.25-.17-.39-.49-.39s-.45.09-.51.26h-.46c0-.41.44-.67,1-.67s.94.3.94.8V38h-.46v-.34h0a.83.83,0,0,1-.73.38.77.77,0,0,1-.56-.18A.75.75,0,0,1,43.08,37.3Zm1.55-.21v-.2l-.59,0c-.33,0-.48.13-.48.35s.19.34.44.34a.6.6,0,0,0,.43-.13A.56.56,0,0,0,44.63,37.09Z"/><path id="Shape-17" data-name="Shape" class="cls-3" d="M45.72,36.77c0-.76.4-1.24,1-1.24a.8.8,0,0,1,.74.42h0V34.63H48V38h-.45V37.6h0a.84.84,0,0,1-.76.42C46.11,38,45.72,37.54,45.72,36.77Zm.5,0c0,.51.24.82.64.82s.65-.31.65-.81-.25-.82-.65-.82-.64.31-.64.81Z"/><path id="Shape-18" data-name="Shape" class="cls-3" d="M49.94,36.77a1.14,1.14,0,1,1,2.27,0,1.14,1.14,0,0,1-.54,1.08,1.13,1.13,0,0,1-1.2,0A1.12,1.12,0,0,1,49.94,36.77Zm1.78,0c0-.52-.24-.82-.65-.82s-.64.3-.64.82.23.83.64.83S51.72,37.3,51.72,36.77Z"/><path id="Shape-19" data-name="Shape" class="cls-3" d="M52.84,35.57h.46V36h0a.7.7,0,0,1,.71-.42.81.81,0,0,1,.64.24.82.82,0,0,1,.2.65V38h-.48V36.54c0-.39-.17-.58-.52-.58a.55.55,0,0,0-.57.61V38h-.48Z"/><path id="Shape-20" data-name="Shape" class="cls-3" d="M57.57,35v.61h.52V36h-.52v1.24c0,.25.1.36.34.36h.18V38l-.26,0c-.52,0-.73-.18-.73-.65V36h-.39v-.4h.39V35Z"/><path id="Shape-21" data-name="Shape" class="cls-3" d="M58.74,34.63h.47V36h0a.73.73,0,0,1,.73-.43.78.78,0,0,1,.83.9V38h-.47V36.54c0-.38-.18-.58-.52-.58a.56.56,0,0,0-.44.17.52.52,0,0,0-.16.44V38h-.48Z"/><path id="Shape-22" data-name="Shape" class="cls-3" d="M63.58,37.33a1,1,0,0,1-1,.7,1.15,1.15,0,0,1-.85-.37,1.62,1.62,0,0,1,0-1.76,1.1,1.1,0,0,1,.85-.37c.67,0,1.07.45,1.07,1.21v.16h-1.7v0a.67.67,0,0,0,.17.49.63.63,0,0,0,.47.2.57.57,0,0,0,.57-.29Zm-1.67-.78h1.22a.58.58,0,0,0-.6-.62.61.61,0,0,0-.62.62Z"/></g></g></g></g></svg>