<svg id="Layer_1" data-name="Layer 1" xmlns="http://www.w3.org/2000/svg" viewBox="0 0 80 80"><defs><style>.cls-1{fill:#4cb967;}.cls-2{fill:#104a24;}</style></defs><title>banca</title><g id="Home-2.0.0"><g id="UX-UI-Icon_22" data-name="UX-UI-Icon 22"><path id="Shape" class="cls-1" d="M57.68,38.42H22.82a1.54,1.54,0,0,1-1.54-1.54V27.17A18.91,18.91,0,0,1,40.22,8.32h.08A18.91,18.91,0,0,1,59.22,27.17v9.71A1.54,1.54,0,0,1,57.68,38.42ZM24.35,35.34H56.14V27.17A15.83,15.83,0,0,0,40.3,11.39h-.08A15.84,15.84,0,0,0,24.35,27.17Z"/><path id="Shape-2" data-name="Shape" class="cls-2" d="M58.42,72H22.06a7.08,7.08,0,0,1-7.19-7V36.88a1.54,1.54,0,0,1,1.54-1.54H64.09a1.53,1.53,0,0,1,1.53,1.54V65A7.09,7.09,0,0,1,58.42,72ZM17.94,38.42V65a4,4,0,0,0,4.12,3.89H58.42A4,4,0,0,0,62.55,65V38.42Z"/><g id="Group"><path id="Shape-3" data-name="Shape" class="cls-1" d="M40.24,57.48A7.47,7.47,0,1,1,47.71,50,7.48,7.48,0,0,1,40.24,57.48Zm0-11.86A4.39,4.39,0,1,0,44.63,50,4.4,4.4,0,0,0,40.24,45.62Z"/><path id="Shape-4" data-name="Shape" class="cls-1" d="M40.25,64.82a1.54,1.54,0,0,1-1.54-1.54V55.85a1.54,1.54,0,1,1,3.07,0v7.43A1.53,1.53,0,0,1,40.25,64.82Z"/></g></g></g></svg>