<svg id="Layer_1" data-name="Layer 1" xmlns="http://www.w3.org/2000/svg" viewBox="0 0 80 80"><defs><style>.cls-1{fill:#a5cf59;}.cls-2{fill:#05aa5b;}</style></defs><title>benef-sin</title><g id="Product-Specific-1.0.0"><g id="Group-2"><g id="diamante-copy"><polygon id="Shape" class="cls-1" points="16.14 24.76 22.16 13.27 63.21 13.27 69.23 24.76 42.69 64.15 16.14 24.76"/><path id="Shape-2" data-name="Shape" class="cls-2" d="M63.09,8.84H17.86L9.5,25.36,40.47,73l31-47.64Zm-13,17.45L40.44,67.16,30.06,26.29Zm-19.28-2,9.69-12.86,9.7,12.86ZM42.44,10.82h18.1l-9,12ZM28.86,23.62l-8.58-12.8H38.51ZM27,24.31H12.2l6.36-12.56Zm1.08,2,10,39.49L12.42,26.29Zm24,0H68.52L42.68,66Zm.76-2,9.54-12.65,6.4,12.65Z"/></g></g></g></svg>