<svg id="Layer_1" data-name="Layer 1" xmlns="http://www.w3.org/2000/svg" viewBox="0 0 80 80"><defs><style>.cls-1{fill:#a5cf59;}.cls-2{fill:#05aa5b;}</style></defs><title>bonificaciones-sin</title><g id="Product-Specific-1.0.0"><g id="inversion"><path id="Shape" class="cls-1" d="M38.08,66.34A10.38,10.38,0,1,1,48.45,56,10.38,10.38,0,0,1,38.08,66.34Z"/><g id="Group"><path id="Shape-2" data-name="Shape" class="cls-2" d="M41,40.56V37.18l3-3h0c1.45,0,6-.25,8.88-3.19,2.57-2.59,3.3-6.57,3.1-10.3-3.7-.21-7.65.53-10.23,3.12-2.91,2.93-3.15,7.47-3.15,8.94L41,34.34V25.91c1-1,4-4.42,4-8.57,0-3.68-2.28-7-5-9.5-2.76,2.49-5,5.82-5,9.5,0,4.15,3,7.54,4,8.57v13.2l-1.62-1.63c0-1.47-.25-6-3.16-8.94C31.61,26,27.67,25.22,24,25.42c-.21,3.73.52,7.71,3.1,10.31C30,38.66,34.49,38.91,36,38.91h0l1.77,1.78A15.62,15.62,0,1,0,41,40.56Zm6.18-15.37c2-2.07,5.28-2.49,6.87-2.57-.08,1.6-.5,4.84-2.56,6.92S46.17,32,44.58,32.11c.08-1.59.5-4.84,2.56-6.92ZM36.92,17.34c0-2.93,2-5.53,3-6.72,1.07,1.18,3,3.78,3,6.72s-2,5.53-3,6.71C38.89,22.87,36.92,20.28,36.92,17.34Zm-8.44,17C26.43,32.24,26,29,25.92,27.39c1.59.08,4.82.51,6.87,2.58s2.48,5.32,2.56,6.92C33.76,36.81,30.54,36.39,28.48,34.31ZM40,70A13.73,13.73,0,1,1,53.59,56.27,13.67,13.67,0,0,1,40,70Z"/><polygon id="Shape-3" data-name="Shape" class="cls-2" points="36.92 52.18 44 52.18 44 50.18 40.96 50.18 40.96 48.13 38.97 48.13 38.97 50.18 34.93 50.18 34.93 57.27 43 57.27 43 60.35 35.93 60.35 35.93 62.35 38.97 62.35 38.97 64.4 40.96 64.4 40.96 62.35 44.99 62.35 44.99 55.26 36.92 55.26 36.92 52.18"/></g></g></g></svg>