<svg id="Layer_1" data-name="Layer 1" xmlns="http://www.w3.org/2000/svg" viewBox="0 0 80 80"><defs><style>.cls-1{fill:#b9b9b9;}.cls-2{fill:#fff;}</style></defs><title>busqueda_lupa</title><g id="Busqueda-1.0.0"><g id="UX-UI-Icon_25" data-name="UX-UI-Icon 25"><path id="Shape" class="cls-1" d="M30.81,53.9a22.6,22.6,0,1,1,16-6.62A22.47,22.47,0,0,1,30.81,53.9Zm0-42.09a19.48,19.48,0,1,0,13.77,5.7A19.35,19.35,0,0,0,30.81,11.81Z"/><circle id="Oval" class="cls-1" cx="30.81" cy="31.29" r="15.38"/><path id="Shape-2" data-name="Shape" class="cls-1" d="M51.75,53.9a1.7,1.7,0,0,1-1.18-.48l-5.7-5.69a1.7,1.7,0,0,1,0-2.38,1.67,1.67,0,0,1,2.37,0L52.93,51a1.68,1.68,0,0,1-1.18,2.87Z"/><path id="Shape-3" data-name="Shape" class="cls-1" d="M66.44,72a5.06,5.06,0,0,1-3.59-1.48L49.48,57.13A5.08,5.08,0,0,1,56.67,50L70,63.35A5.07,5.07,0,0,1,66.44,72ZM53.07,51.69a1.86,1.86,0,0,0-1.31,3.17L65.13,68.25a1.86,1.86,0,0,0,2.63-2.63L54.39,52.23A1.86,1.86,0,0,0,53.07,51.69Z"/><path id="Shape-4" data-name="Shape" class="cls-2" d="M23,39.43A1.35,1.35,0,0,1,22,39a11.39,11.39,0,0,1,0-15.39,1.35,1.35,0,0,1,2,0,1.59,1.59,0,0,1,0,2.15,8.22,8.22,0,0,0,0,11.09,1.59,1.59,0,0,1,0,2.15A1.35,1.35,0,0,1,23,39.43Z"/></g></g></svg>