<svg id="Layer_1" data-name="Layer 1" xmlns="http://www.w3.org/2000/svg" viewBox="0 0 80 80"><defs><style>.cls-1{fill:#f5f6f6;}.cls-2{fill:#27b34b;}</style></defs><title>cerrar</title><g id="Producto_Especifico_Simulador-V1-1.2.0" data-name="Producto Especifico Simulador-V1-1.2.0"><g id="Group-2"><path id="Shape" class="cls-1" d="M40,71.69A31.85,31.85,0,1,1,71.8,39.85,31.87,31.87,0,0,1,40,71.69Zm0-60.84a29,29,0,1,0,29,29A29,29,0,0,0,40,10.85Z"/><g id="Group"><path id="Shape-2" data-name="Shape" class="cls-2" d="M28.71,52.51a1.39,1.39,0,0,1-1-.42,1.41,1.41,0,0,1,0-2L50.19,27.6a1.42,1.42,0,0,1,2,2L29.72,52.09A1.42,1.42,0,0,1,28.71,52.51Z"/><path id="Shape-3" data-name="Shape" class="cls-2" d="M51.19,52.51a1.41,1.41,0,0,1-1-.42L27.71,29.61a1.42,1.42,0,0,1,2-2L52.2,50.08a1.43,1.43,0,0,1-1,2.43Z"/></g></g></g></svg>