<svg id="Layer_1" data-name="Layer 1" xmlns="http://www.w3.org/2000/svg" viewBox="0 0 80 80"><defs><style>.cls-1{fill:#1d1b50;}.cls-2{fill:#a5cf59;}.cls-3{fill:#05aa5b;}</style></defs><title>cliente</title><g id="Product-Specific-Promotions-1.0.0"><g id="Group-4"><g id="Group-15-Copy-10"><path id="Shape" class="cls-1" d="M40.62,71a31,31,0,1,1,31-31A31.05,31.05,0,0,1,40.62,71Zm0-59.34A28.32,28.32,0,1,0,68.93,40,28.35,28.35,0,0,0,40.62,11.68Z"/></g><g id="usuario"><path id="Shape-2" data-name="Shape" class="cls-2" d="M27,52.41c.91-6.29,6.66-11.17,13.65-11.17s12.73,4.88,13.64,11.17Z"/><path id="Shape-3" data-name="Shape" class="cls-3" d="M43.15,39.21a8,8,0,1,0-6.31,0A15.52,15.52,0,0,0,24.49,54.89h31A15.53,15.53,0,0,0,43.15,39.21ZM33,31.87a7,7,0,1,1,7,7A7,7,0,0,1,33,31.87ZM25.46,53.92a14.54,14.54,0,0,1,29.07,0Z"/></g></g></g></svg>