<svg id="Layer_1" data-name="Layer 1" xmlns="http://www.w3.org/2000/svg" viewBox="0 0 80 80"><defs><style>.cls-1{fill:#e6e6e5;}</style></defs><title>contrasena</title><g id="longin"><g id="shield"><path id="Fill-1" class="cls-1" d="M60.31,32.77l-.26,0c0-2.27,0-4.54,0-6.81a1.21,1.21,0,0,0-.71-1.22c-6.33-3.52-12.65-7.07-19-10.57a1.64,1.64,0,0,0-1.37,0c-6.12,3.48-12.21,7-18.32,10.5a1.38,1.38,0,0,0-.77,1.41c0,3.8,0,7.6,0,11.4a31.62,31.62,0,0,0,.3,4.87c1.86,11,7.63,18.76,17.21,23.55a3.78,3.78,0,0,0,4,.07c.64-.39,1.37-.6,2-1A29.41,29.41,0,0,0,59.37,43.64C60.06,40.1,60,36.4,60.31,32.77ZM14.77,32.2c0-2.7,0-5.4,0-8.1a3.3,3.3,0,0,1,1.85-3.23Q27.24,14.8,37.84,8.61a3.34,3.34,0,0,1,3.63,0q10.94,6.2,21.91,12.3a3.28,3.28,0,0,1,1.86,3.22c-.06,5.07.12,10.16-.15,15.22A35.52,35.52,0,0,1,50.27,67.06a43.59,43.59,0,0,1-9.79,5.08,2.62,2.62,0,0,1-1.85,0C31.46,69.33,25.35,65,21,58.3a36.28,36.28,0,0,1-6.09-19c-.08-2.38,0-4.76,0-7.13Z"/><path id="Fill-4" class="cls-1" d="M40.11,41.62,47.59,32c1-1.31,2.4-1.36,3.27-.15a3.82,3.82,0,0,1-.25,4.48q-6.39,8.22-12.79,16.42c-1.21,1.55-2.35,1.58-3.52,0-2.45-3.26-2.68-3.68-5.1-7a3.69,3.69,0,0,1,0-4.21,1.81,1.81,0,0,1,3.13,0c1.77,2.34,1.31,1.85,3,4.23A6.64,6.64,0,0,1,35.9,47Z"/></g></g></svg>