<svg id="Layer_1" data-name="Layer 1" xmlns="http://www.w3.org/2000/svg" viewBox="0 0 80 80"><defs><style>.cls-1{fill:#1d1b50;}.cls-2{fill:#2db34a;}.cls-3{fill:#a5cf59;}.cls-4{fill:#19b26d;}</style></defs><title>contacto</title><g id="Formulario-1.0.0-Copy"><g id="Group-14"><g id="Group-15-Copy-11"><path id="Shape" class="cls-1" d="M40.08,72.25A31.52,31.52,0,1,1,71.6,40.73,31.55,31.55,0,0,1,40.08,72.25Zm0-60.29A28.78,28.78,0,1,0,68.86,40.73,28.81,28.81,0,0,0,40.08,12Z"/></g><g id="Group-2-Copy"><path id="Shape-2" data-name="Shape" class="cls-2" d="M47.22,47.21a2.06,2.06,0,0,0-3.1,0c-.73.72-1.45,1.44-2.16,2.17a.44.44,0,0,1-.6.11c-.47-.26-1-.46-1.42-.74a22.77,22.77,0,0,1-5.42-4.94,12.72,12.72,0,0,1-2-3.11.45.45,0,0,1,.11-.58c.73-.7,1.43-1.42,2.15-2.14a2.06,2.06,0,0,0,0-3.17l-1.7-1.71c-.59-.58-1.16-1.17-1.76-1.75a2.07,2.07,0,0,0-3.1,0c-.73.72-1.43,1.46-2.17,2.17A3.51,3.51,0,0,0,25,35.9a9.9,9.9,0,0,0,.78,4.34,26.31,26.31,0,0,0,4.68,7.81,29,29,0,0,0,9.61,7.51,13.74,13.74,0,0,0,5.32,1.55,3.86,3.86,0,0,0,3.34-1.27c.63-.7,1.33-1.33,2-2a2.07,2.07,0,0,0,0-3.16Z"/><path id="Shape-3" data-name="Shape" class="cls-3" d="M45.41,42l2.24-.39a10.36,10.36,0,0,0-2.8-5.52,9.92,9.92,0,0,0-5.71-2.91l-.32,2.3a7.64,7.64,0,0,1,4.43,2.26A8,8,0,0,1,45.41,42Z"/><path id="Shape-4" data-name="Shape" class="cls-4" d="M49.48,32.78a15.64,15.64,0,0,0-9.09-4.65l-.31,2.22a13.63,13.63,0,0,1,7.87,4A14.22,14.22,0,0,1,51.8,42L54,41.62A16.52,16.52,0,0,0,49.48,32.78Z"/></g></g></g></svg>