<svg id="Layer_1" data-name="Layer 1" xmlns="http://www.w3.org/2000/svg" viewBox="0 0 80 80"><defs><style>.cls-1{fill:#a5cf59;}.cls-2{fill:#05aa5b;}</style></defs><title>efectivo-sin</title><g id="Product-Specific-1.0.0"><g id="Group-7"><g id="Group-6"><g id="dinero"><path id="Shape" class="cls-1" d="M19.8,50.6a7.4,7.4,0,0,0-1.68-1.88V28a7.4,7.4,0,0,0,1.68-1.88h40A7.18,7.18,0,0,0,61.48,28v20.7a7.18,7.18,0,0,0-1.67,1.88Z"/><g id="Group"><path id="Shape-2" data-name="Shape" class="cls-2" d="M8,17.56V59.18H71.6V17.56ZM69.62,57.11H10V19.63H69.62Z"/><path id="Shape-3" data-name="Shape" class="cls-2" d="M16.42,54.47H63.19c0-1.9-.13-2.93,2.82-2.93V25.2c-3,0-2.82-1.08-2.82-2.93H16.42c0,3.08-1,2.93-2.83,2.93V51.54C15.42,51.54,16.42,51.41,16.42,54.47Zm-.84-27.34a3.9,3.9,0,0,0,2.69-2.8H61.33A3.9,3.9,0,0,0,64,27.12V49.61a3.92,3.92,0,0,0-2.7,2.8H18.27a3.9,3.9,0,0,0-2.69-2.8Z"/></g></g></g><polygon id="Shape-4" data-name="Shape" class="cls-2" points="35.8 33.88 42.79 33.88 42.79 31.68 39.79 31.68 39.79 29.43 37.83 29.43 37.83 31.68 33.84 31.68 33.84 39.47 41.81 39.47 41.81 42.86 34.82 42.86 34.82 45.06 37.83 45.06 37.83 47.31 39.79 47.31 39.79 45.06 43.78 45.06 43.78 37.27 35.8 37.27 35.8 33.88"/></g></g></svg>