<svg id="Layer_1" data-name="Layer 1" xmlns="http://www.w3.org/2000/svg" viewBox="0 0 80 80"><defs><style>.cls-1,.cls-2,.cls-3{fill:none;}.cls-1{stroke:#4cb967;}.cls-2,.cls-3{stroke:#104a24;}.cls-2{stroke-linecap:square;}</style></defs><title>emprpesarial</title><g id="Home-2.0.0"><g id="Group-25"><path id="Rectangle-10" class="cls-1" d="M32.87,38H47.23a2.88,2.88,0,0,1,2.87,2.87h0a2.87,2.87,0,0,1-2.87,2.87H32.87A2.87,2.87,0,0,1,30,40.83h0A2.88,2.88,0,0,1,32.87,38Z"/><path id="Rectangle-10-Copy" class="cls-1" d="M32.87,12.13H47.23A2.87,2.87,0,0,1,50.1,15h0a2.88,2.88,0,0,1-2.87,2.87H32.87A2.88,2.88,0,0,1,30,15h0A2.87,2.87,0,0,1,32.87,12.13Z"/><path id="Line-4" class="cls-2" d="M9.6,38H70.5"/><rect id="Rectangle-10-2" data-name="Rectangle-10" class="cls-3" x="9.91" y="17.87" width="60.29" height="48.8" rx="8.61" ry="8.61"/></g></g></svg>