<svg id="Layer_1" data-name="Layer 1" xmlns="http://www.w3.org/2000/svg" viewBox="0 0 80 80"><defs><style>.cls-1{fill:#a5cf59;}.cls-2{fill:#05aa5b;}.cls-3{fill:#fff;}</style></defs><title>folderdownload</title><g id="Producto_Especifico_Simulador-V1-1.0.0" data-name="Producto Especifico Simulador-V1-1.0.0"><g id="Group-9-Copy-3"><g id="plan-de-estudios-copy-3"><polygon id="Shape" class="cls-1" points="23.27 67.02 23.27 14.98 51.58 14.98 51.58 22.73 59.21 22.73 59.21 67.02 23.27 67.02"/><g id="Group"><path id="Shape-2" data-name="Shape" class="cls-2" d="M55.13,9.19H17.52V71.36h46V17.66Zm.57,3.32,4.53,4.58H55.7ZM19.45,69.41V11.14H53.77V19H61.6V69.41Z"/></g></g><g id="Group-3-Copy-2"><rect id="Rectangle-path" class="cls-2" x="37.57" y="58.59" width="14.84" height="2.27"/><ellipse id="Oval-2" class="cls-3" cx="30.72" cy="35.36" rx="3.43" ry="2.83"/><ellipse id="Oval-2-Copy-4" class="cls-3" cx="30.72" cy="47.82" rx="3.43" ry="2.83"/><ellipse id="Oval-2-Copy-5" class="cls-3" cx="30.72" cy="60.29" rx="3.43" ry="2.83"/><path id="Shape-3" data-name="Shape" class="cls-2" d="M30.15,56.32a4,4,0,1,0,4,4A4,4,0,0,0,30.15,56.32Zm0,6.24a2.28,2.28,0,1,1,2.29-2.27A2.29,2.29,0,0,1,30.15,62.56Z"/><rect id="Rectangle-path-2" data-name="Rectangle-path" class="cls-2" x="37.57" y="46.12" width="14.84" height="2.27"/><path id="Shape-4" data-name="Shape" class="cls-2" d="M30.15,43.86a4,4,0,1,0,4,4A4,4,0,0,0,30.15,43.86Zm0,6.24a2.28,2.28,0,1,1,2.29-2.28A2.29,2.29,0,0,1,30.15,50.1Z"/><rect id="Rectangle-path-3" data-name="Rectangle-path" class="cls-2" x="37.57" y="34.79" width="14.84" height="2.27"/><path id="Shape-5" data-name="Shape" class="cls-2" d="M30.15,31.39a4,4,0,1,0,4,4A4,4,0,0,0,30.15,31.39Zm0,6.24a2.28,2.28,0,1,1,2.29-2.27A2.29,2.29,0,0,1,30.15,37.63Z"/></g></g></g></svg>