<svg id="Layer_1" data-name="Layer 1" xmlns="http://www.w3.org/2000/svg" viewBox="0 0 80 80"><defs><style>.cls-1{fill:#03653a;}.cls-2{fill:#4cb967;}</style></defs><title>gracias</title><g id="Notificactions-1.0.0"><g id="Group-24"><g id="UX-UI-Icon_5" data-name="UX-UI-Icon 5"><g id="Group"><path id="Shape" class="cls-1" d="M61.12,66.67a1.7,1.7,0,1,1-1.59-3,16.24,16.24,0,0,0,6.79-21.9L58.15,26.41A2.79,2.79,0,0,0,53.23,29a1.71,1.71,0,0,1-3,1.61,2.78,2.78,0,0,0-4.92,2.61,1.71,1.71,0,0,1-3,1.61,2.79,2.79,0,0,0-4.92,2.62,1.71,1.71,0,0,1-3,1.6L27.59,26.4A2.79,2.79,0,0,0,22.66,29L34,50.34a1.71,1.71,0,0,1-3,1.6L19.65,30.62a6.2,6.2,0,0,1,11-5.82l4.15,7.82a6.26,6.26,0,0,1,7-2.31,6.24,6.24,0,0,1,7.94-4.22,6.22,6.22,0,0,1,11.44-1.28l8.16,15.36A19.64,19.64,0,0,1,61.12,66.67Z"/><path id="Shape-2" data-name="Shape" class="cls-1" d="M29.76,57.21a1.68,1.68,0,0,1-2.3-.69L23.8,49.65a6.19,6.19,0,0,1,2.59-8.35,1.7,1.7,0,1,1,1.59,3,2.79,2.79,0,0,0-1.16,3.75l3.65,6.86A1.7,1.7,0,0,1,29.76,57.21Z"/><path id="Shape-3" data-name="Shape" class="cls-1" d="M46.79,39.72a1.71,1.71,0,0,1-2.31-.7l-2.21-4.16a1.71,1.71,0,0,1,3-1.61l2.21,4.17A1.71,1.71,0,0,1,46.79,39.72Z"/><path id="Shape-4" data-name="Shape" class="cls-1" d="M38.82,44a1.71,1.71,0,0,1-2.31-.7l-2.46-4.63a1.71,1.71,0,0,1,3-1.61l2.46,4.64A1.71,1.71,0,0,1,38.82,44Z"/><path id="Shape-5" data-name="Shape" class="cls-1" d="M54.73,35.5a1.71,1.71,0,0,1-2.31-.7l-2.21-4.16a1.71,1.71,0,0,1,3-1.61l2.21,4.17A1.71,1.71,0,0,1,54.73,35.5Z"/><path id="Shape-6" data-name="Shape" class="cls-1" d="M61.12,66.67A24.89,24.89,0,0,1,27.46,56.52a1.71,1.71,0,0,1,3-1.61,21.48,21.48,0,0,0,29.06,8.76,1.7,1.7,0,1,1,1.59,3Z"/></g><g id="Group-2" data-name="Group"><path id="Shape-7" data-name="Shape" class="cls-2" d="M15.3,21.69a1.25,1.25,0,0,1-1,.07l-3.83-1.34a1.45,1.45,0,0,1-.92-1.72,1.22,1.22,0,0,1,1.6-.85L15,19.18a1.46,1.46,0,0,1,.91,1.73A1.24,1.24,0,0,1,15.3,21.69Z"/><path id="Shape-8" data-name="Shape" class="cls-2" d="M31.35,19.1,28,20.88a1.38,1.38,0,0,1-1.29-2.44l3.33-1.78a1.39,1.39,0,0,1,1.3,2.44Z"/><path id="Shape-9" data-name="Shape" class="cls-2" d="M15.83,27.35l-3.34,1.78a1.38,1.38,0,0,1-1.29-2.44l3.34-1.77a1.38,1.38,0,0,1,1.29,2.43Z"/><path id="Shape-10" data-name="Shape" class="cls-2" d="M23.66,17.24a1.21,1.21,0,0,1-1,.07,1.45,1.45,0,0,1-.91-1.72l1-3.93a1.22,1.22,0,0,1,1.6-.85,1.46,1.46,0,0,1,.91,1.73l-1,3.92A1.19,1.19,0,0,1,23.66,17.24Z"/><path id="Shape-11" data-name="Shape" class="cls-2" d="M18.43,17.55a1.34,1.34,0,0,1-1.78-.62l-1.91-3.6A1.28,1.28,0,1,1,17,12.13l1.91,3.6A1.33,1.33,0,0,1,18.43,17.55Z"/></g></g></g></g></svg>