<svg id="Layer_1" data-name="Layer 1" xmlns="http://www.w3.org/2000/svg" viewBox="0 0 80 80"><defs><style>.cls-1{fill:#a5cf59;}.cls-2,.cls-3,.cls-5{fill:none;stroke:#05aa5b;}.cls-2,.cls-3{stroke-width:2px;}.cls-3{stroke-linecap:square;}.cls-4{fill:#fff;}</style></defs><title>icono_tabla</title><g id="Producto_Especifico_Simulador-V1-1.0.0" data-name="Producto Especifico Simulador-V1-1.0.0"><g id="Group-41"><g id="Group-33"><rect id="Rectangle-5" class="cls-1" x="8.15" y="17.98" width="59.06" height="39.73" rx="2.15" ry="2.15"/><rect id="Rectangle-5-2" data-name="Rectangle-5" class="cls-2" x="9.22" y="17.98" width="62.28" height="42.95" rx="2.15" ry="2.15"/><path id="Line-3" class="cls-3" d="M9.74,28.72H71"/><path id="Line-3-Copy-3" class="cls-3" d="M40.36,18.49V61"/><path id="Line-3-Copy-4" class="cls-3" d="M25.33,18.49V61"/><path id="Line-3-Copy-5" class="cls-3" d="M55.39,18.49V61"/><g id="Rectangle-6"><rect id="path-1" class="cls-4" x="12.44" y="20.13" width="9.66" height="5.37" rx="1.07" ry="1.07"/><rect class="cls-5" x="12.98" y="20.67" width="8.59" height="4.3" rx="1.07" ry="1.07"/></g><g id="Rectangle-6-Copy-4"><rect id="path-2" class="cls-4" x="12.44" y="30.87" width="9.66" height="5.37" rx="1.07" ry="1.07"/><rect class="cls-5" x="12.98" y="31.41" width="8.59" height="4.3" rx="1.07" ry="1.07"/></g><g id="Rectangle-6-Copy-4-2" data-name="Rectangle-6-Copy-4"><rect id="path-3" class="cls-4" x="12.44" y="42.68" width="9.66" height="5.37" rx="1.07" ry="1.07"/><rect class="cls-5" x="12.98" y="43.22" width="8.59" height="4.3" rx="1.07" ry="1.07"/></g><g id="Rectangle-6-Copy-5"><rect id="path-4" class="cls-4" x="12.44" y="53.42" width="9.66" height="5.37" rx="1.07" ry="1.07"/><rect class="cls-5" x="12.98" y="53.95" width="8.59" height="4.3" rx="1.07" ry="1.07"/></g><g id="Rectangle-6-Copy"><rect id="path-5" class="cls-4" x="27.47" y="20.13" width="9.66" height="5.37" rx="1.07" ry="1.07"/><rect class="cls-5" x="28.01" y="20.67" width="8.59" height="4.3" rx="1.07" ry="1.07"/></g><g id="Rectangle-6-Copy-2"><rect id="path-6" class="cls-4" x="43.58" y="20.13" width="9.66" height="5.37" rx="1.07" ry="1.07"/><rect class="cls-5" x="44.12" y="20.67" width="8.59" height="4.3" rx="1.07" ry="1.07"/></g><g id="Rectangle-6-Copy-3"><rect id="path-7" class="cls-4" x="59.69" y="20.13" width="9.66" height="5.37" rx="1.07" ry="1.07"/><rect class="cls-5" x="60.23" y="20.67" width="8.59" height="4.3" rx="1.07" ry="1.07"/></g><path id="Line-3-Copy" class="cls-3" d="M9.74,39.46H71"/><path id="Line-3-Copy-2" class="cls-3" d="M9.74,50.2H71"/></g></g></g></svg>