<svg id="Layer_1" data-name="Layer 1" xmlns="http://www.w3.org/2000/svg" xmlns:xlink="http://www.w3.org/1999/xlink" viewBox="0 0 80 80"><defs><style>.cls-1{fill:#fff;}.cls-2{opacity:0.42;}.cls-3{mask:url(#mask);}.cls-4{fill:#010101;}</style><mask id="mask" x="9.15" y="8" width="62.74" height="63.75" maskUnits="userSpaceOnUse"><g id="mask-2"><polygon id="path-1" class="cls-1" points="9.15 71.75 71.88 71.75 71.88 8 9.15 8 9.15 71.75"/></g></mask></defs><title>icono_facebook</title><g id="Footer" class="cls-2"><g id="facebook"><g class="cls-3"><path id="Fill-4" class="cls-4" d="M50.56,24.53l-.69,6.25a.76.76,0,0,1-.27.5.7.7,0,0,1-.54.11c-2.81-.59-4.31-.59-4.87,0s-.48,1.82-.45,3.45c0,.22,0,.44,0,.66h5.44a.71.71,0,0,1,.52.23.72.72,0,0,1,.16.55l-.73,6.29a.69.69,0,0,1-.68.62h-4.7V59.24a.69.69,0,0,1-.69.7H35.93a.69.69,0,0,1-.68-.7V43.19h-3.4a.7.7,0,0,1-.69-.71V36.2a.69.69,0,0,1,.69-.7h3.4c.15-10.56,2.65-12.37,8.1-12.37a47.58,47.58,0,0,1,6.62.63.71.71,0,0,1,.59.77M40.52,8C23.19,8,9.15,22.27,9.15,39.87s14,31.88,31.37,31.88S71.88,57.47,71.88,39.87,57.84,8,40.52,8"/></g></g></g></svg>