<svg id="Layer_1" data-name="Layer 1" xmlns="http://www.w3.org/2000/svg" viewBox="0 0 80 80"><defs><style>.cls-1{fill:#1d1b50;}.cls-2{fill:#a5cf59;}.cls-3{fill:#05aa5b;}</style></defs><title>icono_calcula_credito</title><g id="Producto_Especifico_Simulador-V1-1.0.0" data-name="Producto Especifico Simulador-V1-1.0.0"><g id="Group-2"><g id="Group-15-Copy-10"><path id="Shape" class="cls-1" d="M40.37,71.59A31.38,31.38,0,1,1,71.75,40.21,31.41,31.41,0,0,1,40.37,71.59Zm0-60A28.65,28.65,0,1,0,69,40.21,28.68,28.68,0,0,0,40.37,11.57Z"/></g><g id="Group-5"><g id="niveles"><g id="Group"><path id="Shape-2" data-name="Shape" class="cls-2" d="M31.12,34.07a3.24,3.24,0,1,1,3.11-3.24A3.18,3.18,0,0,1,31.12,34.07Z"/></g><g id="Group-Copy"><path id="Shape-3" data-name="Shape" class="cls-2" d="M52.49,50.35a3.24,3.24,0,1,1,3.11-3.24A3.18,3.18,0,0,1,52.49,50.35Z"/></g><path id="Shape-4" data-name="Shape" class="cls-3" d="M37.49,30.06a6.72,6.72,0,0,0-7.34-6.12,6.8,6.8,0,0,0-5.88,6.12H19v1.52h5.23a6.63,6.63,0,0,0,13.22,0H64.22V30.06Zm-6.61,6.16a5.41,5.41,0,1,1,5.19-5.41h0a5.3,5.3,0,0,1-5.19,5.4Z"/><path id="Shape-5" data-name="Shape" class="cls-3" d="M64.22,46.23H59A6.74,6.74,0,0,0,51.65,40a6.84,6.84,0,0,0-5.88,6.21H19v1.54H45.77A6.74,6.74,0,0,0,53.11,54,6.84,6.84,0,0,0,59,47.77h5.23ZM52.38,52.48A5.49,5.49,0,1,1,57.57,47,5.34,5.34,0,0,1,52.38,52.48Z"/></g></g></g></g></svg>