<svg id="Layer_1" data-name="Layer 1" xmlns="http://www.w3.org/2000/svg" viewBox="0 0 80 80"><defs><style>.cls-1{fill:none;stroke:#f7e613;}</style></defs><title>icono_estrella</title><g id="Product-Specific-1.0.0"><g id="star60-copy-4"><path id="Shape" class="cls-1" d="M71.6,32.53q0-1.39-2.13-1.74L50.39,28,41.84,10.8Q41.12,9.24,40,9.24T38.12,10.8L29.56,28,10.48,30.79q-2.13.34-2.13,1.74a2.9,2.9,0,0,0,1,1.82L23.14,47.76,19.87,66.69a6.09,6.09,0,0,0-.07.76,2.29,2.29,0,0,0,.39,1.35,1.41,1.41,0,0,0,1.2.55,3.17,3.17,0,0,0,1.52-.46L40,60l17.07,8.94a3.12,3.12,0,0,0,1.52.46,1.37,1.37,0,0,0,1.16-.55,2.29,2.29,0,0,0,.39-1.35,7.29,7.29,0,0,0,0-.76L56.82,47.76,70.61,34.35a2.72,2.72,0,0,0,1-1.82Z"/></g></g></svg>