<svg id="Layer_1" data-name="Layer 1" xmlns="http://www.w3.org/2000/svg" viewBox="0 0 80 80"><defs><style>.cls-1{fill:#1d1b50;}.cls-2{fill:#a5cf59;}.cls-3{fill:#05aa5b;}</style></defs><title>icono_pagos_fijos</title><g id="Product-Specific-1.0.0"><g id="Group-14"><g id="Group-15-Copy-9"><path id="Shape" class="cls-1" d="M40.25,71.66A31.75,31.75,0,1,1,72,39.91,31.79,31.79,0,0,1,40.25,71.66Zm0-60.66A28.91,28.91,0,1,0,69.16,39.91,28.95,28.95,0,0,0,40.25,11Z"/></g><g id="monedas"><path id="Shape-2" data-name="Shape" class="cls-2" d="M49.14,50.07a7.62,7.62,0,1,1,7.62-7.62A7.62,7.62,0,0,1,49.14,50.07Z"/><g id="Group"><rect id="Rectangle" class="cls-2" x="24.54" y="27.62" width="10.8" height="24.58"/><polygon id="Shape-3" data-name="Shape" class="cls-3" points="50.69 46.22 45.74 46.22 45.74 47.65 47.87 47.65 47.87 49.11 49.26 49.11 49.26 47.65 52.08 47.65 52.08 42.59 46.43 42.59 46.43 40.4 51.39 40.4 51.39 38.97 49.26 38.97 49.26 37.51 47.87 37.51 47.87 38.97 45.04 38.97 45.04 44.02 50.69 44.02 50.69 46.22"/><path id="Shape-4" data-name="Shape" class="cls-3" d="M52.62,53.72a11.31,11.31,0,0,0,6.09-14.58A10.84,10.84,0,0,0,44.5,32.89a11.08,11.08,0,0,0-6.17,6.48V24.67H21V53.72H18.65v1.43H61.84V53.72Zm-4.06-20.2A9.79,9.79,0,1,1,39,43.3,9.65,9.65,0,0,1,48.56,33.52ZM22.4,26.1H36.94v4.38H22.4Zm0,5.81H36.94v4.38H22.4Zm0,5.81H36.94V42.1H22.4Zm0,5.81H36.94v4.38H22.4Zm0,10.19V49.34H36.94v4.38Zm15.93-6.47a11.15,11.15,0,0,0,6.17,6.47H38.33Z"/></g></g></g></g></svg>