<svg id="Layer_1" data-name="Layer 1" xmlns="http://www.w3.org/2000/svg" viewBox="0 0 80 80"><defs><style>.cls-1{fill:#a5cf59;}.cls-2{fill:#05aa5b;}</style></defs><title>icono-cat-sin-circulo</title><g id="Product-Specific-1.0.0"><g id="grafico-de-lineas"><path id="Shape" class="cls-1" d="M13.64,66.28V11.66H62A4.44,4.44,0,1,0,68.18,18l.09-.08V66.28ZM51.38,36.06a4.45,4.45,0,1,0,4.44,4.44A4.44,4.44,0,0,0,51.38,36.06ZM27,36.06a4.45,4.45,0,1,0,4.44,4.44A4.44,4.44,0,0,0,27,36.06Z"/><path id="Shape-2" data-name="Shape" class="cls-2" d="M25.41,44.91a4.91,4.91,0,0,0,6.22-3.06,5.25,5.25,0,0,0,.18-.65l15.27,0a4.91,4.91,0,1,0,9.65-1.8,5,5,0,0,0-1.68-2.87l9.4-17.7a4.9,4.9,0,1,0-1.72-.91L53.35,35.57a4.91,4.91,0,0,0-6.14,3.25c0,.13-.07.27-.1.4l-15.32,0a4.91,4.91,0,1,0-8.06,4.67L10.61,66.66V10.24H8.67v61H69.78V69.31H11.32Zm40.43-33.8a3,3,0,1,1-3,3A3,3,0,0,1,65.84,11.11ZM51.9,37.29a3,3,0,1,1-3,3A3,3,0,0,1,51.9,37.29ZM27,37.29a3,3,0,1,1-3,3A3,3,0,0,1,27,37.29Z"/></g></g></svg>