<svg id="Layer_1" data-name="Layer 1" xmlns="http://www.w3.org/2000/svg" viewBox="0 0 80 80"><defs><style>.cls-1{fill:#4683c4;}.cls-2{fill:#1d1b50;}</style></defs><title>icono_flecha</title><g id="Card-Creditos-y-Prestamos"><g id="UX-UI-Icon_35-Copy" data-name="UX-UI-Icon 35-Copy"><path id="Shape" class="cls-1" d="M32.73,57.19A24.26,24.26,0,1,1,57,32.93a1.44,1.44,0,1,1-2.87,0A21.39,21.39,0,1,0,32.73,54.32a1.44,1.44,0,1,1,0,2.87Z"/><path id="Shape-2" data-name="Shape" class="cls-1" d="M33.54,50.72a17,17,0,1,1,17-17,1.48,1.48,0,1,1-3,0,14,14,0,1,0-14,14,1.48,1.48,0,1,1,0,3Z"/><path id="Shape-3" data-name="Shape" class="cls-1" d="M29.69,41a1.42,1.42,0,0,1-.74-.2,8.75,8.75,0,0,1-3.76-10.57,8.42,8.42,0,0,1,15.48-.6,1.53,1.53,0,0,1-.71,2,1.5,1.5,0,0,1-2-.71A5.46,5.46,0,0,0,34.31,28,5.53,5.53,0,0,0,28,31.36a5.63,5.63,0,0,0,2.41,6.79A1.53,1.53,0,0,1,31,40.23,1.49,1.49,0,0,1,29.69,41Z"/><path id="Shape-4" data-name="Shape" class="cls-2" d="M64.32,71.75a1.44,1.44,0,0,1-1-.42l-9.94-9.94-5.43,5.43a1.45,1.45,0,0,1-1.31.39,1.41,1.41,0,0,1-1-.87L32.84,34.92A1.44,1.44,0,0,1,34.72,33L66.14,45.77a1.41,1.41,0,0,1,.87,1,1.45,1.45,0,0,1-.39,1.31l-5.43,5.43,9.94,9.94a1.45,1.45,0,0,1,0,2l-5.79,5.79A1.44,1.44,0,0,1,64.32,71.75Zm-11-13.85a1.41,1.41,0,0,1,1,.43l9.94,9.94,3.75-3.75-9.94-9.94a1.43,1.43,0,0,1,0-2L63,47.63,36.79,37,47.42,63.24l4.92-4.91A1.41,1.41,0,0,1,53.36,57.9Z"/></g></g></svg>