<svg id="Layer_1" data-name="Layer 1" xmlns="http://www.w3.org/2000/svg" viewBox="0 0 80 80"><defs><style>.cls-1{fill:#1d1b50;}.cls-2{fill:#a5cf59;}.cls-3{fill:#05aa5b;}</style></defs><title>icono_credito_inteligente</title><g id="Producto_Especifico_Simulador-V1-1.0.0" data-name="Producto Especifico Simulador-V1-1.0.0"><g id="Group-8"><g id="Group-15-Copy-10"><path id="Shape" class="cls-1" d="M39.86,72.14A31.86,31.86,0,1,1,71.71,40.28,31.89,31.89,0,0,1,39.86,72.14Zm0-60.94A29.09,29.09,0,1,0,68.94,40.28,29.11,29.11,0,0,0,39.86,11.2Z"/></g><g id="pago-por-clic"><circle id="Oval" class="cls-2" cx="39.22" cy="38.37" r="15.93"/><g id="Group"><path id="Shape-2" data-name="Shape" class="cls-3" d="M39.16,19.16A20.54,20.54,0,1,0,59.7,39.7,20.56,20.56,0,0,0,39.16,19.16Zm0,39.28A18.74,18.74,0,1,1,57.91,39.7,18.77,18.77,0,0,1,39.16,58.44Z"/><polygon id="Shape-3" data-name="Shape" class="cls-3" points="35.44 34.82 43.78 34.82 43.78 33.02 40.06 33.02 40.06 30.46 38.27 30.46 38.27 33.02 33.64 33.02 33.64 40.6 42.89 40.6 42.89 44.58 34.54 44.58 34.54 46.37 38.27 46.37 38.27 48.94 40.06 48.94 40.06 46.37 44.68 46.37 44.68 38.8 35.44 38.8 35.44 34.82"/></g></g></g></g></svg>