<svg id="Layer_1" data-name="Layer 1" xmlns="http://www.w3.org/2000/svg" viewBox="0 0 80 80"><defs><style>.cls-1{fill:#1d1b50;}.cls-2{fill:#a5cf59;}.cls-3{fill:#05aa5b;}</style></defs><title>icono_renovación</title><g id="Producto_Especifico_Simulador-V1-1.0.0" data-name="Producto Especifico Simulador-V1-1.0.0"><g id="Group-11"><g id="Group-15-Copy-9"><path id="Shape" class="cls-1" d="M40.4,72.43A31.6,31.6,0,1,1,72,40.83,31.63,31.63,0,0,1,40.4,72.43Zm0-60.37A28.78,28.78,0,1,0,69.17,40.83,28.8,28.8,0,0,0,40.4,12.06Z"/></g><circle id="Oval-Copy" class="cls-2" cx="40.4" cy="40.83" r="27.81"/><g id="Group-22-Copy"><g id="UX-UI-Icon_41" data-name="UX-UI-Icon 41"><g id="Group"><path id="Shape-2" data-name="Shape" class="cls-3" d="M56.5,39a1.41,1.41,0,0,1-1.37-1.14,14.34,14.34,0,0,0-28.21,0,1.4,1.4,0,0,1-1.65,1.11,1.43,1.43,0,0,1-1.09-1.7A17.38,17.38,0,0,1,41,23.19a17.38,17.38,0,0,1,16.84,14,1.43,1.43,0,0,1-1.09,1.7A1.33,1.33,0,0,1,56.5,39Z"/><path id="Shape-3" data-name="Shape" class="cls-3" d="M25.44,39.12a1.42,1.42,0,0,1-1.29-.87L21.56,32a1.45,1.45,0,0,1,.74-1.88,1.39,1.39,0,0,1,1.84.76l2,4.91L31,33.71a1.38,1.38,0,0,1,1.83.76,1.43,1.43,0,0,1-.74,1.88L26,39A1.37,1.37,0,0,1,25.44,39.12Z"/><path id="Shape-4" data-name="Shape" class="cls-3" d="M41,58.48a17.38,17.38,0,0,1-16.85-14,1.43,1.43,0,0,1,1.09-1.7,1.4,1.4,0,0,1,1.65,1.11,14.34,14.34,0,0,0,28.21,0,1.4,1.4,0,0,1,1.65-1.11,1.43,1.43,0,0,1,1.09,1.7A17.38,17.38,0,0,1,41,58.48Z"/><path id="Shape-5" data-name="Shape" class="cls-3" d="M59.2,51.65a1.42,1.42,0,0,1-1.29-.87l-2-4.91L51.08,48a1.38,1.38,0,0,1-1.83-.76A1.44,1.44,0,0,1,50,45.32l6.07-2.66a1.39,1.39,0,0,1,1.08,0,1.43,1.43,0,0,1,.76.77l2.59,6.23a1.46,1.46,0,0,1-.74,1.89A1.54,1.54,0,0,1,59.2,51.65Z"/></g></g></g></g></g></svg>