<svg id="Layer_1" data-name="Layer 1" xmlns="http://www.w3.org/2000/svg" viewBox="0 0 80 80"><defs><style>.cls-1{opacity:0.42;}.cls-2{fill:#010101;}.cls-3{fill:#fff;}.cls-4{fill:#c5d6d1;}</style></defs><title>icono_youtube</title><g id="Footer" class="cls-1"><g id="youtube"><g id="Group-3"><path id="Fill-1" class="cls-2" d="M39.57,10.07A31,31,0,1,0,70.65,41a31,31,0,0,0-31.08-31"/></g><path id="Fill-4" class="cls-3" d="M50.18,35.41V24.3h-2v8.49c-.45.63-.87.94-1.27.94s-.43-.16-.48-.47a5.83,5.83,0,0,1,0-.79V24.3h-2v8.78a5.61,5.61,0,0,0,.18,1.65,1.24,1.24,0,0,0,1.3.83,3.24,3.24,0,0,0,2.31-1.37v1.22Zm-9.5-3.22c0,1-.31,1.54-1,1.54s-1-.51-1-1.54V27.51c0-1,.31-1.53,1-1.53s1,.51,1,1.53Zm2-.38V27.92a4.3,4.3,0,0,0-.63-2.62,3,3,0,0,0-4.71,0,4.3,4.3,0,0,0-.63,2.62v3.89a4.29,4.29,0,0,0,.63,2.61,3,3,0,0,0,4.71,0,4.29,4.29,0,0,0,.63-2.61Zm-6-11.31H34.45l-1.53,5.85L31.33,20.5H29c.47,1.38,1,2.77,1.44,4.15a37.16,37.16,0,0,1,1.36,4.72v6H34v-6Z"/><path id="Fill-6" class="cls-4" d="M43.23,46.68a1.44,1.44,0,0,0-1,.49v6.7a1.44,1.44,0,0,0,1,.49c.58,0,.87-.49.87-1.48v-4.7c0-1-.29-1.5-.87-1.5"/><path id="Fill-8" class="cls-4" d="M50.66,46.68c-.67,0-1,.51-1,1.53v1h2v-1q0-1.53-1-1.53"/><path id="Fill-10" class="cls-3" d="M53.65,50.89h-4v1.94q0,1.53,1,1.53a.87.87,0,0,0,.9-.8,12.85,12.85,0,0,0,0-1.35h2v.29c0,.64,0,1.08,0,1.29A2.89,2.89,0,0,1,53.14,55a2.76,2.76,0,0,1-2.42,1.19A2.87,2.87,0,0,1,48.3,55a4.25,4.25,0,0,1-.64-2.58V48.61A4.21,4.21,0,0,1,48.28,46a2.84,2.84,0,0,1,2.39-1.13A2.78,2.78,0,0,1,53,46a4.28,4.28,0,0,1,.62,2.59ZM46.1,52.72a8.85,8.85,0,0,1-.2,2.21,1.58,1.58,0,0,1-1.6,1.24A2.7,2.7,0,0,1,42.24,55V56h-2V41.26h2v4.82a2.7,2.7,0,0,1,2.06-1.19,1.58,1.58,0,0,1,1.6,1.24,8.63,8.63,0,0,1,.2,2.21ZM38.51,56h-2v-1.2a3.21,3.21,0,0,1-2.29,1.35,1.23,1.23,0,0,1-1.29-.82,5.59,5.59,0,0,1-.17-1.63V45h2v8.09c0,.46,0,.71,0,.77,0,.31.2.47.47.47s.82-.31,1.27-.93V45h2Zm-6-12.68h-2.4V56H27.85V43.34H25.49V41.26h7ZM55.54,41.1A4.15,4.15,0,0,0,52,37.86a111.38,111.38,0,0,0-12.39-.46,111.2,111.2,0,0,0-12.39.46,4.15,4.15,0,0,0-3.58,3.24A34.92,34.92,0,0,0,23,48.89a35.56,35.56,0,0,0,.57,7.79,4.2,4.2,0,0,0,3.58,3.24,111.28,111.28,0,0,0,12.39.45A111.28,111.28,0,0,0,52,59.92a4.2,4.2,0,0,0,3.58-3.24,35.57,35.57,0,0,0,.58-7.79,34.92,34.92,0,0,0-.58-7.79Z"/></g></g></svg>