<svg id="Layer_1" data-name="Layer 1" xmlns="http://www.w3.org/2000/svg" viewBox="0 0 80 80"><defs><style>.cls-1{fill:#1d1b50;}.cls-2{fill:#a5cf59;}.cls-3{fill:#05aa5b;}</style></defs><title>icono_paga_menos</title><g id="Producto_Especifico_Simulador-V1-1.0.0" data-name="Producto Especifico Simulador-V1-1.0.0"><g id="Group-9"><g id="Group-15-Copy-8"><path id="Shape" class="cls-1" d="M40.4,72.36A31.6,31.6,0,1,1,72,40.76,31.64,31.64,0,0,1,40.4,72.36ZM40.4,12A28.78,28.78,0,1,0,69.17,40.76,28.8,28.8,0,0,0,40.4,12Z"/></g><circle id="Oval" class="cls-2" cx="40.4" cy="40.76" r="27.81"/><g id="UX-UI-Icon_43" data-name="UX-UI-Icon 43"><g id="Group"><g id="Shape-2" data-name="Shape"><path class="cls-3" d="M39.66,54.19a1.32,1.32,0,0,1-1.31-1.33V27A1.31,1.31,0,1,1,41,27v25.9A1.32,1.32,0,0,1,39.66,54.19Z"/><path class="cls-3" d="M39.72,55.9a1.3,1.3,0,0,1-.93-.39L29.51,46a1.37,1.37,0,0,1,0-1.9,1.29,1.29,0,0,1,1.85,0l8.36,8.56,8.35-8.56a1.29,1.29,0,0,1,1.85,0,1.37,1.37,0,0,1,0,1.9l-9.28,9.5A1.3,1.3,0,0,1,39.72,55.9Z"/></g></g></g></g></g></svg>