<svg id="Layer_1" data-name="Layer 1" xmlns="http://www.w3.org/2000/svg" viewBox="0 0 80 80"><defs><style>.cls-1{fill:#1d1b50;}.cls-2{fill:#a5cf59;}.cls-3{fill:#05aa5b;}.cls-4{fill:#fff;}</style></defs><title>icono_informacion_adicional</title><g id="Product-Specific-1.0.0"><g id="Group-16"><g id="Group-15-Copy-10"><path id="Shape" class="cls-1" d="M40,72.15a31.3,31.3,0,1,1,31.3-31.3A31.33,31.33,0,0,1,40,72.15Zm0-59.88A28.58,28.58,0,1,0,68.53,40.85,28.61,28.61,0,0,0,40,12.27Z"/></g><g id="Group-18"><g id="plan-de-estudios-copy"><polygon id="Shape-2" data-name="Shape" class="cls-2" points="28.37 55.84 28.37 25.45 45.31 25.45 45.31 29.98 49.89 29.98 49.89 55.84 28.37 55.84"/><g id="Group"><path id="Shape-3" data-name="Shape" class="cls-3" d="M47.44,22.07H24.92V58.38H52.47V27ZM47.78,24l2.72,2.68H47.78ZM26.08,57.24v-34H46.63v4.61h4.69V57.24Z"/></g></g><g id="Group-3"><rect id="Rectangle-path" class="cls-3" x="36.46" y="48.66" width="8.49" height="1.38"/><ellipse id="Oval-2" class="cls-4" cx="32.54" cy="34.5" rx="1.96" ry="1.73"/><ellipse id="Oval-2-Copy-4" class="cls-4" cx="32.54" cy="42.1" rx="1.96" ry="1.73"/><ellipse id="Oval-2-Copy-5" class="cls-4" cx="32.54" cy="49.7" rx="1.96" ry="1.73"/><path id="Shape-4" data-name="Shape" class="cls-3" d="M32.22,47.28A2.42,2.42,0,1,0,34.5,49.7,2.36,2.36,0,0,0,32.22,47.28Zm0,3.81a1.39,1.39,0,1,1,1.31-1.39A1.37,1.37,0,0,1,32.22,51.09Z"/><rect id="Rectangle-path-2" data-name="Rectangle-path" class="cls-3" x="36.46" y="41.06" width="8.49" height="1.38"/><path id="Shape-5" data-name="Shape" class="cls-3" d="M32.22,39.68A2.42,2.42,0,1,0,34.5,42.1,2.36,2.36,0,0,0,32.22,39.68Zm0,3.81a1.39,1.39,0,1,1,1.31-1.39A1.35,1.35,0,0,1,32.22,43.49Z"/><rect id="Rectangle-path-3" data-name="Rectangle-path" class="cls-3" x="36.46" y="34.16" width="8.49" height="1.38"/><path id="Shape-6" data-name="Shape" class="cls-3" d="M32.22,32.08A2.42,2.42,0,1,0,34.5,34.5,2.36,2.36,0,0,0,32.22,32.08Zm0,3.81a1.39,1.39,0,1,1,1.31-1.39A1.35,1.35,0,0,1,32.22,35.89Z"/></g></g></g></g></svg>