<svg id="Layer_1" data-name="Layer 1" xmlns="http://www.w3.org/2000/svg" viewBox="0 0 80 80"><defs><style>.cls-1{fill:#a5cf59;}.cls-2{fill:#05aa5b;}</style></defs><title>icon-bonificaciones-sin-circulo</title><g id="Producto_Especifico_Simulador-V1-1.0.0" data-name="Producto Especifico Simulador-V1-1.0.0"><g id="Group-8"><g id="Group-5"><g id="niveles"><g id="Group"><path id="Shape" class="cls-1" d="M25.22,32.84a4.55,4.55,0,1,1,4.39-4.55A4.47,4.47,0,0,1,25.22,32.84Z"/></g><g id="Group-Copy"><path id="Shape-2" data-name="Shape" class="cls-1" d="M55.26,55.72a4.55,4.55,0,1,1,4.38-4.55A4.47,4.47,0,0,1,55.26,55.72Z"/></g><path id="Shape-3" data-name="Shape" class="cls-2" d="M34.18,27.2a9.43,9.43,0,0,0-10.31-8.6,9.54,9.54,0,0,0-8.27,8.6H8.25v2.13H15.6a9.45,9.45,0,0,0,10.32,8.6,9.54,9.54,0,0,0,8.26-8.6H71.75V27.2Zm-9.29,8.66a7.45,7.45,0,0,1-7.3-7.59,7.45,7.45,0,0,1,7.29-7.6,7.47,7.47,0,0,1,7.31,7.59h0a7.46,7.46,0,0,1-7.3,7.59Z"/><path id="Shape-4" data-name="Shape" class="cls-2" d="M71.75,49.92H64.4A9.49,9.49,0,0,0,54.08,41.2a9.6,9.6,0,0,0-8.26,8.72H8.25v2.17H45.82a9.47,9.47,0,0,0,10.31,8.72,9.61,9.61,0,0,0,8.27-8.72h7.35ZM55.11,58.71A7.72,7.72,0,1,1,62.4,51,7.51,7.51,0,0,1,55.11,58.71Z"/></g></g></g></g></svg>