<svg id="Layer_1" data-name="Layer 1" xmlns="http://www.w3.org/2000/svg" viewBox="0 0 80 80"><defs><style>.cls-1{fill:#a5cf59;}.cls-2{fill:#05aa5b;}.cls-3{fill:#fff;}</style></defs><title>icono-folletos0-sin</title><g id="Product-Specific-1.0.0"><g id="Group-18"><g id="plan-de-estudios-copy"><polygon id="Shape" class="cls-1" points="21.88 66.81 21.88 14.94 50.79 14.94 50.79 22.67 58.59 22.67 58.59 66.81 21.88 66.81"/><g id="Group"><path id="Shape-2" data-name="Shape" class="cls-2" d="M54.43,9.17H16v62H63V17.61ZM55,12.48,59.64,17H55ZM18,69.19V11.11H53V19h8V69.19Z"/></g></g><g id="Group-3"><rect id="Rectangle-path" class="cls-2" x="35.69" y="54.55" width="14.49" height="2.36"/><ellipse id="Oval-2" class="cls-3" cx="29" cy="30.39" rx="3.34" ry="2.95"/><ellipse id="Oval-2-Copy-4" class="cls-3" cx="29" cy="43.36" rx="3.34" ry="2.95"/><ellipse id="Oval-2-Copy-5" class="cls-3" cx="29" cy="56.32" rx="3.34" ry="2.95"/><path id="Shape-3" data-name="Shape" class="cls-2" d="M28.45,52.2a4.13,4.13,0,1,0,3.9,4.12A4,4,0,0,0,28.45,52.2Zm0,6.49a2.37,2.37,0,1,1,2.23-2.37A2.31,2.31,0,0,1,28.45,58.69Z"/><rect id="Rectangle-path-2" data-name="Rectangle-path" class="cls-2" x="35.69" y="41.59" width="14.49" height="2.36"/><path id="Shape-4" data-name="Shape" class="cls-2" d="M28.45,39.23a4.13,4.13,0,1,0,3.9,4.13A4,4,0,0,0,28.45,39.23Zm0,6.49a2.37,2.37,0,1,1,2.23-2.36A2.3,2.3,0,0,1,28.45,45.72Z"/><rect id="Rectangle-path-3" data-name="Rectangle-path" class="cls-2" x="35.69" y="29.8" width="14.49" height="2.36"/><path id="Shape-5" data-name="Shape" class="cls-2" d="M28.45,26.27a4.13,4.13,0,1,0,3.9,4.12A4,4,0,0,0,28.45,26.27Zm0,6.49a2.37,2.37,0,1,1,2.23-2.37A2.31,2.31,0,0,1,28.45,32.76Z"/></g></g></g></svg>