<svg id="Layer_1" data-name="Layer 1" xmlns="http://www.w3.org/2000/svg" viewBox="0 0 80 80"><defs><style>.cls-1{fill:#1d1b50;}.cls-2{fill:#a5cf59;}.cls-3{fill:#05aa5b;}</style></defs><title>icono_cat</title><g id="Product-Specific-1.0.0"><g id="Group-17"><g id="Group-15-Copy-12"><path id="Shape" class="cls-1" d="M40.48,71.11A31.13,31.13,0,1,1,71.6,40,31.16,31.16,0,0,1,40.48,71.11Zm0-59.54A28.42,28.42,0,1,0,68.9,40,28.45,28.45,0,0,0,40.48,11.57Z"/></g><g id="grafico-de-lineas"><path id="Shape-2" data-name="Shape" class="cls-2" d="M26.78,53.68V26.29H51a2.23,2.23,0,1,0,3.11,3.19l0,0V53.68ZM45.71,38.53a2.23,2.23,0,1,0,2.23,2.22A2.22,2.22,0,0,0,45.71,38.53Zm-12.21,0a2.23,2.23,0,1,0,2.23,2.22A2.22,2.22,0,0,0,33.5,38.53Z"/><path id="Shape-3" data-name="Shape" class="cls-3" d="M32.68,43a2.47,2.47,0,0,0,3.13-1.53c0-.11.06-.22.08-.33h7.66a2.46,2.46,0,0,0,4.84-.91,2.56,2.56,0,0,0-.84-1.44l4.71-8.87a2.47,2.47,0,1,0-.86-.46l-4.71,8.87a2.45,2.45,0,0,0-3.07,1.63l-.06.2-7.67,0a2.46,2.46,0,1,0-4.82,1,2.49,2.49,0,0,0,.77,1.35L25.27,53.87V25.58h-1V56.17H54.93v-1H25.62ZM53,26a1.49,1.49,0,1,1-1.49,1.49A1.49,1.49,0,0,1,53,26ZM46,39.14a1.49,1.49,0,1,1-1.49,1.49A1.49,1.49,0,0,1,46,39.14Zm-12.5,0A1.49,1.49,0,1,1,32,40.63,1.51,1.51,0,0,1,33.47,39.14Z"/></g></g></g></svg>