<svg id="Layer_1" data-name="Layer 1" xmlns="http://www.w3.org/2000/svg" viewBox="0 0 80 80"><defs><style>.cls-1{fill:#a5cf59;}.cls-2{fill:#1d1b50;}.cls-3{fill:#05aa5b;}</style></defs><title>icono_facil_autorización</title><g id="Producto_Especifico_Simulador-V1-1.0.0" data-name="Producto Especifico Simulador-V1-1.0.0"><g id="Group-7"><g id="comprobar"><circle id="Oval" class="cls-1" cx="40.2" cy="40.51" r="27.73"/></g><g id="Group-15-Copy-7"><path id="Shape" class="cls-2" d="M40.2,72A31.52,31.52,0,1,1,71.71,40.51,31.56,31.56,0,0,1,40.2,72Zm0-60.21A28.7,28.7,0,1,0,68.89,40.51,28.72,28.72,0,0,0,40.2,11.82Z"/></g><path id="Shape-2" data-name="Shape" class="cls-3" d="M34.17,53.12a2,2,0,0,1-1.44-.6l-8.35-8.41a2,2,0,0,1,0-2.81,2,2,0,0,1,2.84,0l6.93,7,19-18.57a2,2,0,0,1,2.85,0,2,2,0,0,1,0,2.8l-20.4,20A2,2,0,0,1,34.17,53.12Z"/></g></g></svg>