<svg id="Layer_1" data-name="Layer 1" xmlns="http://www.w3.org/2000/svg" viewBox="0 0 80 80"><defs><style>.cls-1{fill:#1d1b50;}.cls-2{fill:#a5cf59;}.cls-3{fill:#05aa5b;}</style></defs><title>icono_beneficios</title><g id="Product-Specific-1.0.0"><g id="Group-2"><g id="Group-15-Copy-10"><path id="Shape" class="cls-1" d="M40,72.3a31.8,31.8,0,1,1,31.8-31.8A31.84,31.84,0,0,1,40,72.3Zm0-60.84a29,29,0,1,0,29,29A29.08,29.08,0,0,0,40,11.46Z"/></g><g id="diamante-copy"><polygon id="Shape-2" data-name="Shape" class="cls-2" points="25.57 31.85 28.98 25.26 52.19 25.26 55.6 31.85 40.59 54.43 25.57 31.85"/><path id="Shape-3" data-name="Shape" class="cls-3" d="M53.31,22.69H27l-4.86,9.5,18,27.39,18-27.39Zm-7.58,10-5.59,23.5-6-23.5ZM34.51,31.59l5.65-7.4,5.64,7.4Zm6.79-7.76H51.83l-5.27,6.9Zm-7.9,7.36-5-7.36H39Zm-1.09.4h-8.6l3.7-7.23Zm.63,1.13,5.83,22.71L23.84,32.72Zm13.94,0h9.59l-15,22.86Zm.45-1.13,5.55-7.28,3.72,7.28Z"/></g></g></g></svg>