<svg id="Layer_1" data-name="Layer 1" xmlns="http://www.w3.org/2000/svg" viewBox="0 0 80 80"><defs><style>.cls-1{fill:#4683c4;}.cls-2{fill:#1d1b50;}</style></defs><title>icono_seguro</title><g id="Card-Ayuda"><g id="Group-37"><g id="UX-UI-Icon_21-Copy" data-name="UX-UI-Icon 21-Copy"><path id="Shape" class="cls-1" d="M55.5,40.12H22.65a1.46,1.46,0,0,1-1.46-1.46V26.48A17.93,17.93,0,0,1,39.12,8.59l.2,0A17.91,17.91,0,0,1,57,26.53a1.46,1.46,0,1,1-2.92,0,15,15,0,0,0-15-15l-.19,0a15,15,0,0,0-14.85,15V37.2H55.5a1.46,1.46,0,1,1,0,2.92Z"/><path id="Shape-2" data-name="Shape" class="cls-1" d="M56.44,72H21.92a6.73,6.73,0,0,1-6.82-6.61V38.66a1.46,1.46,0,0,1,1.47-1.46H61.83a1.46,1.46,0,0,1,1.46,1.46V65.39A6.74,6.74,0,0,1,56.44,72ZM18,40.12V65.39a3.8,3.8,0,0,0,3.89,3.69H56.44a3.82,3.82,0,0,0,3.93-3.69V40.12Z"/><g id="Group"><path id="Shape-3" data-name="Shape" class="cls-2" d="M39.18,58.22a7.1,7.1,0,1,1,7.09-7.1A7.11,7.11,0,0,1,39.18,58.22Zm0-11.27a4.18,4.18,0,1,0,4.17,4.17A4.17,4.17,0,0,0,39.18,47Z"/><path id="Shape-4" data-name="Shape" class="cls-2" d="M39.2,65.19a1.46,1.46,0,0,1-1.46-1.46V56.67a1.46,1.46,0,1,1,2.92,0v7.06A1.47,1.47,0,0,1,39.2,65.19Z"/></g></g></g></g></svg>