<svg id="Layer_1" data-name="Layer 1" xmlns="http://www.w3.org/2000/svg" viewBox="0 0 80 80"><defs><style>.cls-1{fill:#1d1b50;}.cls-2{fill:#a5cf59;}.cls-3{fill:#05aa5b;}</style></defs><title>icono_seguridad</title><g id="Product-Specific-1.0.0"><g id="Group-9"><g id="Group-15-Copy-11"><path id="Shape" class="cls-1" d="M39.79,71.57a32,32,0,1,1,32-32A32,32,0,0,1,39.79,71.57Zm0-61.15A29.19,29.19,0,1,0,69,39.61,29.22,29.22,0,0,0,39.79,10.42Z"/></g><g id="Group-10"><rect id="Rectangle-path" class="cls-2" x="28.28" y="37.05" width="24.29" height="17.9"/><g id="Group"><path id="Shape-2" data-name="Shape" class="cls-3" d="M53.17,33.2V30H50V24.94a9.58,9.58,0,1,0-19.16,0V33.2H24.52V58.78H56.33V33.2Zm-1.35,0h-5V31.38h5ZM32.2,24.94a8.23,8.23,0,1,1,16.45,0V30H45.49V33.2H32.2ZM55,57.43H25.88V34.55H55Z"/></g></g></g></g></svg>