<svg id="Layer_1" data-name="Layer 1" xmlns="http://www.w3.org/2000/svg" viewBox="0 0 80 80"><defs><style>.cls-1{fill:#1d1b50;}.cls-2{fill:#a5cf59;}.cls-3{fill:#05aa5b;}.cls-4{fill:#fff;}</style></defs><title>icono_folletos_legales</title><g id="Producto_Especifico_Simulador-V1-1.0.0" data-name="Producto Especifico Simulador-V1-1.0.0"><g id="Group-10"><g id="Group-15-Copy-13"><path id="Shape" class="cls-1" d="M40.35,72.05A31.25,31.25,0,1,1,71.6,40.8,31.29,31.29,0,0,1,40.35,72.05Zm0-59.79A28.54,28.54,0,1,0,68.89,40.8,28.57,28.57,0,0,0,40.35,12.26Z"/></g><g id="Group-18-Copy"><g id="plan-de-estudios-copy"><polygon id="Shape-2" data-name="Shape" class="cls-2" points="28.79 55.77 28.79 25.42 45.71 25.42 45.71 29.94 50.27 29.94 50.27 55.77 28.79 55.77"/><g id="Group"><path id="Shape-3" data-name="Shape" class="cls-3" d="M47.84,22.05H25.35V58.3h27.5V27ZM48.17,24l2.72,2.67H48.17ZM26.51,57.16v-34H47v4.6H51.7V57.16Z"/></g></g><g id="Group-3"><rect id="Rectangle-path" class="cls-3" x="36.88" y="48.6" width="8.48" height="1.38"/><ellipse id="Oval-2" class="cls-4" cx="32.96" cy="34.46" rx="1.96" ry="1.72"/><ellipse id="Oval-2-Copy-4" class="cls-4" cx="32.96" cy="42.05" rx="1.96" ry="1.72"/><ellipse id="Oval-2-Copy-5" class="cls-4" cx="32.96" cy="49.63" rx="1.96" ry="1.72"/><path id="Shape-4" data-name="Shape" class="cls-3" d="M32.64,47.22a2.42,2.42,0,1,0,2.28,2.41A2.36,2.36,0,0,0,32.64,47.22Zm0,3.8a1.39,1.39,0,1,1,1.3-1.39A1.35,1.35,0,0,1,32.64,51Z"/><rect id="Rectangle-path-2" data-name="Rectangle-path" class="cls-3" x="36.88" y="41.01" width="8.48" height="1.38"/><path id="Shape-5" data-name="Shape" class="cls-3" d="M32.64,39.63a2.42,2.42,0,1,0,2.28,2.42A2.36,2.36,0,0,0,32.64,39.63Zm0,3.8a1.39,1.39,0,1,1,1.3-1.38A1.34,1.34,0,0,1,32.64,43.43Z"/><rect id="Rectangle-path-3" data-name="Rectangle-path" class="cls-3" x="36.88" y="34.12" width="8.48" height="1.38"/><path id="Shape-6" data-name="Shape" class="cls-3" d="M32.64,32.05a2.41,2.41,0,1,0,2.28,2.41A2.36,2.36,0,0,0,32.64,32.05Zm0,3.79a1.38,1.38,0,1,1,1.3-1.38A1.34,1.34,0,0,1,32.64,35.84Z"/></g></g></g></g></svg>