<svg id="Layer_1" data-name="Layer 1" xmlns="http://www.w3.org/2000/svg" viewBox="0 0 80 80"><defs><style>.cls-1{fill:#010101;}.cls-2{fill:#fff;}.cls-3{fill:#a5cf59;}.cls-4{fill:#2db34a;}</style></defs><title>icono_chatbot</title><g id="Product-Specific-1.0.0"><g id="Group-47"><g id="Group-17-Copy-2"><g id="Oval-4"><circle id="path-1" class="cls-1" cx="40.66" cy="39.95" r="31.09"/><circle id="path-1-2" data-name="path-1" class="cls-2" cx="40.66" cy="39.95" r="31.09"/></g><g id="Group-15"><g id="Group-37"><circle id="Oval-3" class="cls-3" cx="38.27" cy="37.56" r="27.74"/><g id="chat"><path id="Shape" class="cls-4" d="M62.65,18a31.09,31.09,0,0,0-46,41.69c-1.39,2.85-3,4.75-4.9,5.66a2.89,2.89,0,0,0-1.58,3,2.86,2.86,0,0,0,2.42,2.43,14,14,0,0,0,2.2.17,20.12,20.12,0,0,0,11.17-3.61A31.1,31.1,0,0,0,62.65,18ZM60.16,59.43A27.62,27.62,0,0,1,26.7,63.72a1.75,1.75,0,0,0-.88-.25,1.9,1.9,0,0,0-1.09.36A16.7,16.7,0,0,1,15,67.41a17.63,17.63,0,0,0,5.33-7.35,1.8,1.8,0,0,0-.3-1.88,27.57,27.57,0,1,1,40.15,1.25Z"/><g id="Group-45"><path id="Shape-2" data-name="Shape" class="cls-4" d="M49.51,27H31.82c-.67,0-1.2,1.28-1.2,2.87s.53,2.87,1.2,2.87H49.51c.67,0,1.2-1.27,1.2-2.87S50.17,27,49.51,27Z"/><path id="Shape-Copy-10" class="cls-4" d="M49.51,36.6H31.82c-.67,0-1.2,1.27-1.2,2.87s.53,2.87,1.2,2.87H49.51c.67,0,1.2-1.28,1.2-2.87S50.17,36.6,49.51,36.6Z"/><path id="Shape-Copy-11" class="cls-4" d="M49.51,46.16H31.82c-.67,0-1.2,1.28-1.2,2.87s.53,2.87,1.2,2.87H49.51c.67,0,1.2-1.27,1.2-2.87S50.17,46.16,49.51,46.16Z"/></g></g></g></g></g></g></g></svg>