<svg id="Layer_1" data-name="Layer 1" xmlns="http://www.w3.org/2000/svg" viewBox="0 0 80 80"><defs><style>.cls-1{fill:#969696;}</style></defs><title>icono_busqueda</title><g id="Pagos-1.0.0"><g id="lupa-copy"><path id="Shape" class="cls-1" d="M70.19,61.67,55.11,46.59A28.94,28.94,0,0,1,46.4,55.3L61.48,70.38a6.16,6.16,0,1,0,8.71-8.71Z"/><path id="Shape-2" data-name="Shape" class="cls-1" d="M56,32.19a24,24,0,1,0-24,24A24,24,0,0,0,56,32.19Zm-24,18a18,18,0,1,1,18-18A18,18,0,0,1,32,50.19Z"/><path id="Shape-3" data-name="Shape" class="cls-1" d="M17.6,33.79h4.57A11.45,11.45,0,0,1,33.6,22.36V17.79A16,16,0,0,0,17.6,33.79Z"/></g></g></svg>