<svg id="Layer_1" data-name="Layer 1" xmlns="http://www.w3.org/2000/svg" viewBox="0 0 80 80"><defs><style>.cls-1{fill:#1d1b50;}.cls-2{fill:#4683c4;}</style></defs><title>icono_corazon</title><g id="Promocion-Xbox"><g id="Group-38"><g id="Group-5-Copy"><path id="Shape" class="cls-1" d="M40,72.14a31.81,31.81,0,1,1,31.8-31.8A31.84,31.84,0,0,1,40,72.14Zm0-60.76a29,29,0,1,0,29,29A29,29,0,0,0,40,11.38Z"/><path id="Shape-2" data-name="Shape" class="cls-2" d="M40.76,59.09a1.39,1.39,0,0,1-.84-.28c-.68-.5-16.53-12.43-17.09-22.19a.49.49,0,0,1,0-.17,10.34,10.34,0,0,1,10.05-10,9.89,9.89,0,0,1,7.88,4,9.92,9.92,0,0,1,7.89-4,10.34,10.34,0,0,1,10.05,10v.17c-.56,9.76-16.41,21.69-17.09,22.19A1.4,1.4,0,0,1,40.76,59.09ZM25.7,36.53C26.16,43.08,36,52.1,40.76,55.81c4.74-3.72,14.61-12.73,15.07-19.28a7.43,7.43,0,0,0-7.18-7.14,7.21,7.21,0,0,0-6.57,4.54,1.42,1.42,0,0,1-2.63,0,7.22,7.22,0,0,0-6.57-4.54A7.43,7.43,0,0,0,25.7,36.53Z"/></g></g></g></svg>