<svg id="Layer_1" data-name="Layer 1" xmlns="http://www.w3.org/2000/svg" viewBox="0 0 80 80"><defs><style>.cls-1{fill:#2ab34b;}.cls-2{fill:#fff;}</style></defs><title>icono_producto_disponible</title><g id="Product-Specific-1.0.0"><g id="agenda"><path id="Shape" class="cls-1" d="M20.35,65V11H50.67a1.21,1.21,0,0,1,1.18,1.24V63.76A1.21,1.21,0,0,1,50.67,65Zm4.33-35.42H47.53V14.72H24.68Z"/><g id="Group"><path id="Shape-2" data-name="Shape" class="cls-2" d="M52.92,71.75H18.1v-63H52.92a5.8,5.8,0,0,1,5.68,5.91V65.84A5.8,5.8,0,0,1,52.92,71.75ZM20,69.78H52.92a3.87,3.87,0,0,0,3.79-3.94V14.66a3.87,3.87,0,0,0-3.79-3.94H20Z"/><path id="Shape-3" data-name="Shape" class="cls-2" d="M50.14,32.25H26.57V16.75H50.14Zm-21.67-2H48.24V18.72H28.47Z"/><rect id="Rectangle-path" class="cls-2" x="27.52" y="39.27" width="21.67" height="2.25"/></g></g></g></svg>