<svg id="Layer_1" data-name="Layer 1" xmlns="http://www.w3.org/2000/svg" xmlns:xlink="http://www.w3.org/1999/xlink" viewBox="0 0 80 80"><defs><style>.cls-1{fill:#fff;}.cls-2{opacity:0.42;}.cls-3{mask:url(#mask);}.cls-4{fill:#010101;}</style><mask id="mask" x="8.84" y="8.08" width="62.91" height="63.92" maskUnits="userSpaceOnUse"><g id="mask-2"><polygon id="path-1" class="cls-1" points="71.75 8.08 71.75 72 8.85 72 8.85 8.08 71.75 8.08"/></g></mask></defs><title>icono_twitter</title><g id="Footer" class="cls-2"><g id="twitter"><g class="cls-3"><path id="Fill-1" class="cls-4" d="M59.39,31a13.56,13.56,0,0,1-2.67,3l-.68.64C56,46,48.48,55.26,38.15,56.7a23.12,23.12,0,0,1-3.14.23,22.58,22.58,0,0,1-11.5-3.2A.66.66,0,0,1,23.2,53a.67.67,0,0,1,.64-.5h.64a15.4,15.4,0,0,0,8.23-2.16A7.55,7.55,0,0,1,27,45.07a.69.69,0,0,1,.14-.69.67.67,0,0,1,.49-.21.5.5,0,0,1,.17,0,8.18,8.18,0,0,1-3.43-6.72.72.72,0,0,1,.31-.62.78.78,0,0,1,.36-.1.58.58,0,0,1,.33.1,5.92,5.92,0,0,0,.91.4,7.58,7.58,0,0,1-1.91-5.38c.07-1.3.3-2.9,1.36-3.76a.66.66,0,0,1,.42-.15.59.59,0,0,1,.23,0,.7.7,0,0,1,.43.51.41.41,0,0,1,0,.11c3.09,3.1,7.1,6.21,13.37,6.82a7.94,7.94,0,0,1,1.64-5.92,8.22,8.22,0,0,1,6.38-3,8,8,0,0,1,5.48,2.19A13.53,13.53,0,0,0,57,27.45l.64-.3a.72.72,0,0,1,.25-.07h0a.67.67,0,0,1,.67.68.64.64,0,0,1-.06.28,8.29,8.29,0,0,1-1.51,2.53c.48-.15,1-.33,1.49-.54a.54.54,0,0,1,.21-.05h.07a.66.66,0,0,1,.66.68.7.7,0,0,1-.11.37m-19.1-23C22.92,8.08,8.84,22.39,8.84,40S22.92,72,40.29,72,71.75,57.69,71.75,40s-14.08-32-31.46-32"/></g></g></g></svg>