<svg id="Layer_1" data-name="Layer 1" xmlns="http://www.w3.org/2000/svg" viewBox="0 0 80 80"><defs><style>.cls-1{fill:#f7e613;}</style></defs><title>icono_estrella_seleccionada</title><g id="Product-Specific-1.0.0"><g id="star60"><path id="Shape" class="cls-1" d="M71.75,33.21c0-.94-.71-1.52-2.14-1.75L50.46,28.69l-8.59-17.3c-.48-1-1.11-1.56-1.87-1.56s-1.39.52-1.87,1.56l-8.59,17.3L10.39,31.46c-1.43.23-2.14.81-2.14,1.75A2.92,2.92,0,0,0,9.2,35L23.09,48.5l-3.28,19a5.93,5.93,0,0,0-.07.76,2.23,2.23,0,0,0,.4,1.35,1.36,1.36,0,0,0,1.2.55,3.2,3.2,0,0,0,1.53-.46l17.13-9,17.14,9a3,3,0,0,0,1.52.46,1.36,1.36,0,0,0,1.17-.55,2.29,2.29,0,0,0,.4-1.35,6.79,6.79,0,0,0,0-.76l-3.28-19L70.76,35a2.75,2.75,0,0,0,1-1.83Z"/></g></g></svg>