<svg id="Layer_1" data-name="Layer 1" xmlns="http://www.w3.org/2000/svg" viewBox="0 0 80 80"><defs><style>.cls-1{fill:#a5cf59;}.cls-2{fill:#05aa5b;}.cls-3{fill:#1d1b50;}</style></defs><title>icono-bonificaciones</title><g id="Product-Specific-1.0.0"><g id="Group-11"><g id="inversion"><path id="Shape" class="cls-1" d="M38.3,58.34a7,7,0,1,1,7-7A7,7,0,0,1,38.3,58.34Z"/><g id="Group"><path id="Shape-2" data-name="Shape" class="cls-2" d="M40.25,40.92V38.63l2-2.06h0c1,0,4-.17,6-2.15,1.74-1.76,2.24-4.44,2.1-7-2.5-.13-5.17.36-6.91,2.12-2,2-2.14,5-2.14,6l-1.09,1.1V31c.69-.7,2.73-3,2.73-5.79,0-2.49-1.54-4.74-3.4-6.42-1.87,1.68-3.41,3.93-3.41,6.42,0,2.8,2,5.09,2.73,5.79v8.93l-1.09-1.11c0-1-.17-4.06-2.13-6-1.75-1.75-4.41-2.25-6.91-2.11-.14,2.52.35,5.21,2.09,7,2,2,5,2.15,6,2.15h0L38.06,41a10.59,10.59,0,1,0,2.19-.08Zm4.18-10.39a7.31,7.31,0,0,1,4.64-1.75,7.29,7.29,0,0,1-1.73,4.68A7.18,7.18,0,0,1,42.7,35.2a7.29,7.29,0,0,1,1.73-4.67Zm-6.91-5.31a7.43,7.43,0,0,1,2.06-4.55,7.4,7.4,0,0,1,2.06,4.55,7.4,7.4,0,0,1-2.06,4.54A7.31,7.31,0,0,1,37.52,25.22ZM31.81,36.69A7.41,7.41,0,0,1,30.09,32a7.35,7.35,0,0,1,4.64,1.74,7.48,7.48,0,0,1,1.73,4.68A7.2,7.2,0,0,1,31.81,36.69Zm7.77,24.12a9.28,9.28,0,1,1,9.21-9.28A9.25,9.25,0,0,1,39.58,60.81Z"/><polygon id="Shape-3" data-name="Shape" class="cls-2" points="37.52 48.77 42.31 48.77 42.31 47.41 40.25 47.41 40.25 46.03 38.91 46.03 38.91 47.41 36.18 47.41 36.18 52.21 41.63 52.21 41.63 54.29 36.85 54.29 36.85 55.64 38.91 55.64 38.91 57.03 40.25 57.03 40.25 55.64 42.98 55.64 42.98 50.85 37.52 50.85 37.52 48.77"/></g></g><path id="Shape-4" data-name="Shape" class="cls-3" d="M40.21,72.37A31.89,31.89,0,1,1,72.1,40.48,31.92,31.92,0,0,1,40.21,72.37Zm0-60.93a29,29,0,1,0,29,29A29.07,29.07,0,0,0,40.21,11.44Z"/></g></g></svg>