<svg id="Layer_1" data-name="Layer 1" xmlns="http://www.w3.org/2000/svg" viewBox="0 0 80 80"><defs><style>.cls-1{fill:#1d1b50;}.cls-2{fill:#a5cf59;}.cls-3{fill:#05aa5b;}</style></defs><title>icono_efectivo_disponible</title><g id="Product-Specific-1.0.0"><g id="Group-13"><g id="Group-15-Copy-8"><path id="Shape" class="cls-1" d="M40.09,71.92A31.66,31.66,0,1,1,71.75,40.26,31.7,31.7,0,0,1,40.09,71.92Zm0-60.49A28.83,28.83,0,1,0,68.92,40.26,28.86,28.86,0,0,0,40.09,11.43Z"/></g><g id="Group-7"><g id="Group-6"><g id="dinero"><path id="Shape-2" data-name="Shape" class="cls-2" d="M27.35,48.69a4.41,4.41,0,0,0-1.07-1.2V34.3a4.57,4.57,0,0,0,1.07-1.2H52.84a4.57,4.57,0,0,0,1.07,1.2V47.49a4.41,4.41,0,0,0-1.07,1.2Z"/><g id="Group"><path id="Shape-3" data-name="Shape" class="cls-3" d="M19.83,27.64V54.15H60.35V27.64ZM59.09,52.83h-38V29h38Z"/><path id="Shape-4" data-name="Shape" class="cls-3" d="M25.2,51.15H55c0-1.21-.08-1.87,1.8-1.87V32.5c-1.89,0-1.8-.69-1.8-1.87H25.2c0,2-.67,1.87-1.81,1.87V49.28C24.56,49.28,25.2,49.2,25.2,51.15Zm-.54-17.42A2.51,2.51,0,0,0,26.38,32H53.81a2.51,2.51,0,0,0,1.72,1.78V48.05a2.49,2.49,0,0,0-1.72,1.79H26.38a2.51,2.51,0,0,0-1.72-1.79Z"/></g></g></g><polygon id="Shape-5" data-name="Shape" class="cls-3" points="37.55 38.03 42 38.03 42 36.63 40.09 36.63 40.09 35.19 38.83 35.19 38.83 36.63 36.29 36.63 36.29 41.59 41.37 41.59 41.37 43.75 36.92 43.75 36.92 45.16 38.83 45.16 38.83 46.59 40.09 46.59 40.09 45.16 42.63 45.16 42.63 40.19 37.55 40.19 37.55 38.03"/></g></g></g></svg>