<svg id="Layer_1" data-name="Layer 1" xmlns="http://www.w3.org/2000/svg" viewBox="0 0 80 80"><defs><style>.cls-1{fill:#1d1b50;}.cls-2{fill:#a5cf59;}.cls-3{fill:#05aa5b;}</style></defs><title>icono_requisitos</title><g id="Product-Specific-1.0.0"><g id="Group-2-Copy"><g id="Group-15-Copy-10"><path id="Shape" class="cls-1" d="M40.27,71.38A31.79,31.79,0,1,1,72.05,39.6,31.82,31.82,0,0,1,40.27,71.38Zm0-60.8a29,29,0,1,0,29,29A29,29,0,0,0,40.27,10.58Z"/></g><g id="plan-de-estudios"><path id="Shape-2" data-name="Shape" class="cls-2" d="M28.76,56.64V23.47H46.9v5h4.89V56.64ZM38.6,34.52a5.81,5.81,0,0,0-4.05,5.92H46a5.81,5.81,0,0,0-4-5.92,3.11,3.11,0,0,0,.88-4.27,3,3,0,0,0-4.23-.89,3.11,3.11,0,0,0-.88,4.27A3,3,0,0,0,38.6,34.52Z"/><g id="Group"><path id="Shape-3" data-name="Shape" class="cls-3" d="M50.1,20.71H26V60.32H55.47V26.1Zm.36,2.11,2.91,2.92H50.46ZM27.23,59.08V22h22v5h5v32.1Z"/><path id="Shape-4" data-name="Shape" class="cls-3" d="M42.93,34.81a3.36,3.36,0,1,0-4.74-.35,2.89,2.89,0,0,0,.35.35c-2.35.91-3.91,3-3.91,6.33H46.84C46.84,37.81,45.31,35.73,42.93,34.81Zm-4.32-2.55a2.13,2.13,0,1,1,2.12,2.14A2.13,2.13,0,0,1,38.61,32.26ZM35.9,39.9a4.87,4.87,0,0,1,9.67,0Z"/><rect id="Rectangle-path" class="cls-3" x="31.89" y="45.31" width="17.68" height="1.24"/><rect id="Rectangle-path-2" data-name="Rectangle-path" class="cls-3" x="31.89" y="49.18" width="17.68" height="1.24"/></g></g></g></g></svg>