<svg id="Layer_1" data-name="Layer 1" xmlns="http://www.w3.org/2000/svg" viewBox="0 0 80 80"><defs><style>.cls-1{fill:#838384;opacity:0.57;}</style></defs><title>icono_mail</title><path class="cls-1" d="M66.61,18.59H13.82a5.51,5.51,0,0,0-5.49,5.52V54.28a5.49,5.49,0,0,0,5.32,5.5H66.77a5.5,5.5,0,0,0,5.33-5.5V24.11A5.51,5.51,0,0,0,66.61,18.59Zm1,35.69a1,1,0,0,1-.27.68L51.23,37.83l16.38-9.77Zm-54.8,0V27.62L29.3,37.73,13.09,55A1,1,0,0,1,12.81,54.28ZM33.22,40.13l5.83,3.57a2.19,2.19,0,0,0,1.16.33,2.24,2.24,0,0,0,1.15-.32l5.91-3.52,14.21,15.1H19ZM67,23.18l-26.78,16L14,23.1H66.61A1.06,1.06,0,0,1,67,23.18Z"/></svg>