<svg id="Layer_1" data-name="Layer 1" xmlns="http://www.w3.org/2000/svg" viewBox="0 0 80 80"><defs><style>.cls-1{fill:#969696;}</style></defs><title>icono_referencia_numero</title><g id="Pagos-1.0.0"><g id="numeral-symbol-in-a-circle"><path id="Shape" class="cls-1" d="M52.2,33.14H47.6l.51-4.08a1.36,1.36,0,0,0-1.36-1.36H45.39A1.36,1.36,0,0,0,44,29.06l-.51,4.08H38.08l.51-4.08a1.36,1.36,0,0,0-1.36-1.36H35.87a1.36,1.36,0,0,0-1.37,1.36L34,33.14H29.06A1.36,1.36,0,0,0,27.7,34.5v1.37a1.36,1.36,0,0,0,1.36,1.36h4.42l-.68,5.44H27.7A1.36,1.36,0,0,0,26.34,44v1.36a1.36,1.36,0,0,0,1.36,1.36h4.59l-.51,4.09a1.36,1.36,0,0,0,1.36,1.36H34.5a1.36,1.36,0,0,0,1.37-1.36l.51-4.09h5.44l-.51,4.09a1.36,1.36,0,0,0,1.36,1.36H44a1.36,1.36,0,0,0,1.36-1.36l.51-4.09h4.94a1.36,1.36,0,0,0,1.36-1.36V44a1.36,1.36,0,0,0-1.36-1.36H46.41l.68-5.44H52.2a1.36,1.36,0,0,0,1.36-1.36V34.5A1.36,1.36,0,0,0,52.2,33.14Zm-9.87,9.53H36.89l.68-5.44H43ZM40,8.65A31.3,31.3,0,1,0,71.25,40,31.3,31.3,0,0,0,40,8.65Zm0,58.52A27.22,27.22,0,1,1,67.17,40,27.22,27.22,0,0,1,40,67.17Z"/></g></g></svg>