<svg id="Layer_1" data-name="Layer 1" xmlns="http://www.w3.org/2000/svg" viewBox="0 0 80 80"><defs><style>.cls-1,.cls-2,.cls-3,.cls-4,.cls-5,.cls-6,.cls-7{fill:#2fb44a;}.cls-2{opacity:0.6;}.cls-2,.cls-3,.cls-4,.cls-5,.cls-6,.cls-7{isolation:isolate;}.cls-3{opacity:0.9;}.cls-4{opacity:0.4;}.cls-5{opacity:0.5;}.cls-6{opacity:0.8;}.cls-7{opacity:0.7;}</style></defs><title>loading</title><g id="Busqueda-1.2.0."><g id="Group-10-Copy"><path id="Shape" class="cls-1" d="M39,54.5a2.84,2.84,0,0,0-3,2.67V67.83a3,3,0,0,0,6,0V57.17A2.84,2.84,0,0,0,39,54.5Z"/><path id="Shape-2" data-name="Shape" class="cls-2" d="M39,9.5a2.84,2.84,0,0,0-3,2.67V22.83a3,3,0,0,0,6,0V12.17A2.84,2.84,0,0,0,39,9.5Z"/><path id="Shape-3" data-name="Shape" class="cls-3" d="M51.6,50.29a2.69,2.69,0,0,0-3.81,3.81l7.61,7.61a2.69,2.69,0,0,0,1.91.79,2.65,2.65,0,0,0,1.9-.79,2.7,2.7,0,0,0,0-3.81Z"/><path id="Shape-4" data-name="Shape" class="cls-4" d="M19.25,37.5h-5.5a3,3,0,0,0,0,6h5.5a3,3,0,0,0,0-6Z"/><path id="Shape-5" data-name="Shape" class="cls-5" d="M20.6,18.29a2.69,2.69,0,0,0-3.81,3.81l7.61,7.61a2.69,2.69,0,0,0,1.91.79,2.65,2.65,0,0,0,1.9-.79,2.7,2.7,0,0,0,0-3.81Z"/><path id="Shape-6" data-name="Shape" class="cls-6" d="M66.17,37.5H54.83a3,3,0,0,0,0,6H66.17a3,3,0,0,0,0-6Z"/><path id="Shape-7" data-name="Shape" class="cls-7" d="M55.4,18.29,47.79,25.9a2.7,2.7,0,0,0,0,3.81,2.65,2.65,0,0,0,1.9.79,2.69,2.69,0,0,0,1.91-.79l7.61-7.61a2.69,2.69,0,0,0-3.81-3.81Z"/></g></g></svg>