<svg id="Layer_1" data-name="Layer 1" xmlns="http://www.w3.org/2000/svg" viewBox="0 0 80 80"><defs><style>.cls-1{fill:#a5cf59;}.cls-2{fill:#05aa5b;}</style></defs><title>pagos0fijos-sin</title><g id="Product-Specific-1.0.0"><g id="monedas"><path id="Shape" class="cls-1" d="M53.37,51.25A11.18,11.18,0,1,1,64.55,40.08,11.17,11.17,0,0,1,53.37,51.25Z"/><g id="Group"><rect id="Rectangle" class="cls-1" x="17.31" y="18.33" width="15.83" height="36.05"/><polygon id="Shape-2" data-name="Shape" class="cls-2" points="55.65 45.6 48.39 45.6 48.39 47.7 51.51 47.7 51.51 49.84 53.55 49.84 53.55 47.7 57.69 47.7 57.69 40.28 49.41 40.28 49.41 37.06 56.67 37.06 56.67 34.97 53.55 34.97 53.55 32.83 51.51 32.83 51.51 34.97 47.37 34.97 47.37 42.38 55.65 42.38 55.65 45.6"/><path id="Shape-3" data-name="Shape" class="cls-2" d="M58.49,56.6a16.6,16.6,0,0,0,8.92-21.38,15.88,15.88,0,0,0-20.83-9.16,16.23,16.23,0,0,0-9,9.49V14H12.12V56.6H8.67v2.1H72V56.6ZM52.53,27a14.35,14.35,0,1,1-14,14.35A14.17,14.17,0,0,1,52.53,27ZM14.16,16.1H35.49v6.42H14.16Zm0,8.52H35.49V31H14.16Zm0,8.52H35.49v6.42H14.16Zm0,8.52H35.49v6.42H14.16Zm0,15V50.18H35.49V56.6Zm23.37-9.5a16.34,16.34,0,0,0,9,9.5h-9Z"/></g></g></g></svg>