<svg id="Layer_1" data-name="Layer 1" xmlns="http://www.w3.org/2000/svg" viewBox="0 0 80 80"><defs><style>.cls-1{fill:#1d1b50;}.cls-2{fill:#a5cf59;}.cls-3{fill:#05aa5b;}</style></defs><title>participa</title><g id="Product-Specific-Promotions-1.0.0"><g id="Group-6"><g id="Group-15-Copy-10"><path id="Shape" class="cls-1" d="M40.3,71.55A31.71,31.71,0,1,1,72,39.84,31.75,31.75,0,0,1,40.3,71.55Zm0-60.65A28.95,28.95,0,1,0,69.24,39.84,29,29,0,0,0,40.3,10.9Z"/></g><g id="pluma-copy"><rect id="Rectangle-path" class="cls-2" x="39.03" y="32.23" width="3.8" height="19.02" transform="translate(-17.53 41.17) rotate(-45)"/><path id="Shape-2" data-name="Shape" class="cls-3" d="M58.05,57.6l-2.09-7-4.64-4.71.58-.59L35.19,28.38l-.58.59-3.23-3.28,2-2,6.08,6.18.78-.79-6.86-7L30.6,24.91l-2-2-4.79,4.85,6,6.1-.57.59L46,51.35l.58-.59,4.64,4.71Zm-1.73-1.76-4.14-1.4,2.76-2.79Zm-31-28.12,3.24-3.28,1.22,1.25L26.59,29Zm2,2,3.23-3.28,3.23,3.28L30.6,33Zm7.82.19L50.34,45.32,46,49.78,30.8,34.41ZM50.53,46.7l3.87,3.92L51.17,53.9,47.3,50Z"/></g></g></g></svg>