<svg id="Layer_1" data-name="Layer 1" xmlns="http://www.w3.org/2000/svg" viewBox="0 0 80 80"><defs><style>.cls-1{fill:#2fb44a;}.cls-2{fill:#0d552b;}.cls-3{fill:#fff;}</style></defs><title>productos_recomendados</title><g id="Seccion-Productos-recomendados"><g id="Group-6"><g id="Group-26"><g id="UX-UI-Icon_16-Copy" data-name="UX-UI-Icon 16-Copy"><path id="Shape" class="cls-1" d="M27,23.51H15.35A1.31,1.31,0,0,1,14,22.21V10.7a1.31,1.31,0,0,1,1.32-1.3H27a1.31,1.31,0,0,1,1.32,1.3V22.21A1.31,1.31,0,0,1,27,23.51ZM16.67,20.9h9V12h-9Z"/><path id="Shape-2" data-name="Shape" class="cls-1" d="M46.35,23.51H34.69a1.31,1.31,0,0,1-1.32-1.3V10.7a1.31,1.31,0,0,1,1.32-1.3H46.35a1.31,1.31,0,0,1,1.32,1.3V22.21A1.31,1.31,0,0,1,46.35,23.51ZM36,20.9h9V12H36Z"/><path id="Shape-3" data-name="Shape" class="cls-2" d="M65.78,23.51H54.12a1.31,1.31,0,0,1-1.32-1.3V10.7a1.31,1.31,0,0,1,1.32-1.3H65.78a1.31,1.31,0,0,1,1.32,1.3V22.21A1.32,1.32,0,0,1,65.78,23.51ZM55.44,20.9h9V12h-9Z"/><path id="Shape-4" data-name="Shape" class="cls-1" d="M27,42.18H15.35A1.31,1.31,0,0,1,14,40.88V29.38a1.32,1.32,0,0,1,1.32-1.31H27a1.32,1.32,0,0,1,1.32,1.31v11.5A1.31,1.31,0,0,1,27,42.18Zm-10.34-2.6h9v-8.9h-9Z"/><path id="Shape-5" data-name="Shape" class="cls-1" d="M46.35,42.18H34.69a1.31,1.31,0,0,1-1.32-1.3V29.38a1.32,1.32,0,0,1,1.32-1.31H46.35a1.32,1.32,0,0,1,1.32,1.31v11.5A1.31,1.31,0,0,1,46.35,42.18ZM36,39.58h9v-8.9H36Z"/><path id="Shape-6" data-name="Shape" class="cls-2" d="M65.78,42.18H54.12a1.31,1.31,0,0,1-1.32-1.3V29.38a1.32,1.32,0,0,1,1.32-1.31H65.78a1.32,1.32,0,0,1,1.32,1.31v11.5A1.31,1.31,0,0,1,65.78,42.18Zm-10.34-2.6h9v-8.9h-9Z"/><path id="Shape-7" data-name="Shape" class="cls-2" d="M27,60.85H15.35A1.31,1.31,0,0,1,14,59.55V48.05a1.31,1.31,0,0,1,1.32-1.3H27a1.31,1.31,0,0,1,1.32,1.3v11.5A1.31,1.31,0,0,1,27,60.85Zm-10.34-2.6h9v-8.9h-9Z"/><path id="Shape-8" data-name="Shape" class="cls-2" d="M46.35,60.85H34.69a1.31,1.31,0,0,1-1.32-1.3V48.05a1.31,1.31,0,0,1,1.32-1.3H46.35a1.31,1.31,0,0,1,1.32,1.3v11.5A1.31,1.31,0,0,1,46.35,60.85ZM36,58.25h9v-8.9H36Z"/><path id="Shape-9" data-name="Shape" class="cls-2" d="M65.78,60.85H54.12a1.31,1.31,0,0,1-1.32-1.3V48.05a1.31,1.31,0,0,1,1.32-1.3H65.78a1.31,1.31,0,0,1,1.32,1.3v11.5A1.31,1.31,0,0,1,65.78,60.85Zm-10.34-2.6h9v-8.9h-9Z"/></g><path id="Shape-10" data-name="Shape" class="cls-3" d="M21.66,72.11a1.46,1.46,0,0,1-1.06-.44l-6.14-6.22a1.44,1.44,0,0,1,0-2.07,1.48,1.48,0,0,1,2.09,0l5.1,5.16,14-13.71a1.48,1.48,0,0,1,2.09,0,1.44,1.44,0,0,1,0,2.07l-15,14.75A1.46,1.46,0,0,1,21.66,72.11Z"/></g></g></g></svg>