<svg id="Layer_1" data-name="Layer 1" xmlns="http://www.w3.org/2000/svg" viewBox="0 0 80 80"><defs><style>.cls-1{fill:#a5cf59;}.cls-2{fill:#05aa5b;}</style></defs><title>requisitos-sin</title><g id="Product-Specific-1.0.0"><g id="Group-2-Copy"><g id="plan-de-estudios"><path id="Shape" class="cls-1" d="M20,65.79V12.92H48.93V20.8h7.8v45ZM35.7,30.53c-3.63,1.12-6.46,4.36-6.46,9.43H47.5c0-5-2.78-8.29-6.46-9.43a5,5,0,0,0,1.4-6.81,4.83,4.83,0,0,0-6.74-1.41,4.93,4.93,0,0,0,0,8.22Z"/><g id="Group"><path id="Shape-2" data-name="Shape" class="cls-2" d="M54,8.51H15.6V71.67h47V17.11Zm.58,3.37,4.63,4.65H54.61Zm-37,57.82V10.49H52.64v8h8V69.7Z"/><path id="Shape-3" data-name="Shape" class="cls-2" d="M42.61,31a5.37,5.37,0,1,0-7.56-.55,4.76,4.76,0,0,0,.55.55c-3.74,1.45-6.23,4.73-6.23,10.09H48.84C48.84,35.77,46.39,32.46,42.61,31Zm-6.9-4.06a3.39,3.39,0,1,1,3.39,3.4A3.4,3.4,0,0,1,35.71,26.93ZM31.4,39.1a7.77,7.77,0,0,1,15.41,0Z"/><rect id="Rectangle-path" class="cls-2" x="25.01" y="47.74" width="28.19" height="1.97"/><rect id="Rectangle-path-2" data-name="Rectangle-path" class="cls-2" x="25.01" y="53.91" width="28.19" height="1.97"/></g></g></g></g></svg>