<svg id="Layer_1" data-name="Layer 1" xmlns="http://www.w3.org/2000/svg" viewBox="0 0 80 80"><defs><style>.cls-1{fill:#4fb165;}</style></defs><title>sucursales</title><path id="SVGID" class="cls-1" d="M38,37.65a7.79,7.79,0,0,1-7.47-5.08,6.8,6.8,0,0,1-.22-1.9V29c0-4.76,4.25-6.93,7.93-6.93a7.85,7.85,0,0,1,8,7.8A8,8,0,0,1,38,37.65ZM61.15,24.42a17.48,17.48,0,0,0-1.08-2.57C55.82,12,46.49,8.41,39,8.41c-10.08,0-21.17,6.52-22.66,20v2.74c0,.11,0,1.14.09,1.66.83,6.4,6.07,13.2,10,19.6C30.59,59.23,35,66,39.29,72.72c2.67-4.39,5.32-8.86,7.93-13.14.72-1.27,1.53-2.52,2.25-3.73.48-.8,1.38-1.6,1.8-2.34,4.21-7.43,11-14.93,11-22.3v-3A21.37,21.37,0,0,0,61.15,24.42Z"/></svg>