<svg id="Layer_1" data-name="Layer 1" xmlns="http://www.w3.org/2000/svg" viewBox="0 0 80 80"><defs><style>.cls-1,.cls-2,.cls-5{fill:none;}.cls-1,.cls-2{stroke:#fff;stroke-width:2px;}.cls-2{stroke-linecap:square;}.cls-3{fill:#1d1b50;}.cls-4{fill:#2db34a;}.cls-5{stroke:#2fb44a;}</style></defs><title>telefono</title><g id="Video-Tamplate"><g id="Group-13"><path id="Rectangle-9-Copy-3" class="cls-1" d="M21.53,42.56V37A3.44,3.44,0,0,1,25,33.55h34V18.44A3.44,3.44,0,0,0,55.5,15H12.44A3.44,3.44,0,0,0,9,18.44V39.11a3.45,3.45,0,0,0,3.44,3.45Z"/><path id="Line-5-Copy" class="cls-2" d="M9.89,24.47H58.05"/><rect id="Rectangle-9-Copy-4" class="cls-1" x="21.06" y="33.94" width="49.94" height="32.72" rx="5.17" ry="5.17"/><g id="Group-29-Copy"><circle id="Oval-4" class="cls-1" cx="50.33" cy="51.17" r="5.17"/><path id="Combined-Shape" class="cls-1" d="M46,48.31a5.08,5.08,0,0,0-.86,2.86A5.16,5.16,0,0,0,46,54l0,0c-1,1.9-2.5,2.27-4.28,2.27a5.17,5.17,0,0,1,0-10.33C43.52,46,45,46.41,46,48.31Z"/></g></g></g><g id="Preguntas-frecuentes-1.1.0"><g id="Group-3"><g id="Group"><g id="Group-10"><g id="Group-15-Copy-10"><path id="Shape" class="cls-3" d="M40.5,71.81A31.5,31.5,0,1,1,72,40.31,31.53,31.53,0,0,1,40.5,71.81Zm0-60.26A28.76,28.76,0,1,0,69.26,40.31,28.79,28.79,0,0,0,40.5,11.55Z"/></g></g><g id="Group-11"><g id="receptor-de-telefono-copy"><path id="Shape-2" data-name="Shape" class="cls-4" d="M61,51.14a1.82,1.82,0,0,1-.56,1.58L55.2,58a3,3,0,0,1-.93.67,3.62,3.62,0,0,1-1.13.36l-.24,0-.51,0A18.54,18.54,0,0,1,50,58.77a18.07,18.07,0,0,1-4.12-1.27,33.84,33.84,0,0,1-5.53-3,41.72,41.72,0,0,1-6.58-5.55,44,44,0,0,1-4.6-5.24,37.08,37.08,0,0,1-2.93-4.62,24.6,24.6,0,0,1-1.66-3.84,21.42,21.42,0,0,1-.76-3,9.54,9.54,0,0,1-.15-2c0-.48,0-.74,0-.79A4.23,4.23,0,0,1,24,28.36a3,3,0,0,1,.68-.94L30,22.15a1.74,1.74,0,0,1,1.26-.56,1.49,1.49,0,0,1,.92.3,3,3,0,0,1,.67.74l4.24,8.05a1.93,1.93,0,0,1,.2,1.38,2.42,2.42,0,0,1-.68,1.27l-1.94,2a.63.63,0,0,0-.14.25,1,1,0,0,0-.06.3,7.23,7.23,0,0,0,.72,1.9,16.25,16.25,0,0,0,1.46,2.32,24.9,24.9,0,0,0,2.82,3.16A26,26,0,0,0,42.6,46a17.76,17.76,0,0,0,2.32,1.49,5.69,5.69,0,0,0,1.42.57l.5.1a1,1,0,0,0,.26-.06.72.72,0,0,0,.25-.13l2.26-2.3a2.41,2.41,0,0,1,1.67-.64,2.07,2.07,0,0,1,1.07.24h0L60,49.83A2,2,0,0,1,61,51.14Z"/></g><g id="receptor-de-telefono"><path id="Shape-3" data-name="Shape" class="cls-5" d="M58.29,51.14a1.79,1.79,0,0,1-.56,1.58L52.46,58a3,3,0,0,1-.93.67A3.62,3.62,0,0,1,50.4,59l-.24,0-.51,0a18.71,18.71,0,0,1-2.44-.26,18.07,18.07,0,0,1-4.12-1.27,33.84,33.84,0,0,1-5.53-3A41.72,41.72,0,0,1,31,48.92a44,44,0,0,1-4.6-5.24,37.08,37.08,0,0,1-2.93-4.62,24.6,24.6,0,0,1-1.66-3.84,21.42,21.42,0,0,1-.76-3,9.54,9.54,0,0,1-.15-2c0-.48,0-.74,0-.79a3.87,3.87,0,0,1,.35-1.13,3,3,0,0,1,.68-.94l5.27-5.27a1.75,1.75,0,0,1,1.27-.56,1.48,1.48,0,0,1,.91.3,2.8,2.8,0,0,1,.67.74l4.24,8.05a1.93,1.93,0,0,1,.2,1.38,2.48,2.48,0,0,1-.67,1.27l-2,2a.63.63,0,0,0-.14.25.93.93,0,0,0-.05.3,6.83,6.83,0,0,0,.71,1.9,17.21,17.21,0,0,0,1.46,2.32,25.71,25.71,0,0,0,2.82,3.16A26,26,0,0,0,39.86,46a17.76,17.76,0,0,0,2.32,1.49,5.69,5.69,0,0,0,1.42.57l.5.1a1,1,0,0,0,.26-.06.64.64,0,0,0,.25-.13l2.26-2.3a2.41,2.41,0,0,1,1.67-.64,2.07,2.07,0,0,1,1.07.24h0l7.65,4.52A2,2,0,0,1,58.29,51.14Z"/></g></g></g></g></g></svg>