<svg id="Layer_1" data-name="Layer 1" xmlns="http://www.w3.org/2000/svg" viewBox="0 0 80 80"><defs><style>.cls-1{fill:#e6e6e5;}</style></defs><title>token</title><g id="longin"><g id="shield-copy"><path id="Fill-1" class="cls-1" d="M59.82,33l-.25,0c0-2.22,0-4.45,0-6.68a1.18,1.18,0,0,0-.7-1.2c-6.21-3.45-12.39-6.93-18.61-10.36a1.57,1.57,0,0,0-1.34,0c-6,3.41-12,6.88-18,10.3a1.32,1.32,0,0,0-.75,1.38c0,3.73,0,7.45,0,11.17a30.39,30.39,0,0,0,.3,4.78c1.82,10.74,7.48,18.4,16.87,23.1a3.74,3.74,0,0,0,4,.07c.62-.39,1.34-.6,2-.94A28.89,28.89,0,0,0,58.9,43.7C59.57,40.22,59.53,36.59,59.82,33Zm-44.65-.56c0-2.65,0-5.3,0-7.94A3.25,3.25,0,0,1,17,21.37q10.44-6,20.82-12a3.26,3.26,0,0,1,3.56,0q10.72,6.06,21.48,12.06a3.22,3.22,0,0,1,1.83,3.15c-.06,5,.12,10-.15,14.93A34.81,34.81,0,0,1,50,66.67a43.13,43.13,0,0,1-9.6,5,2.56,2.56,0,0,1-1.81,0c-7-2.76-13-7-17.33-13.58a35.67,35.67,0,0,1-6-18.6c-.07-2.33,0-4.66,0-7Z"/><path id="Fill-4" class="cls-1" d="M40,41.71c2.45-3.13,4.89-6.27,7.34-9.39,1-1.29,2.35-1.34,3.2-.15a3.71,3.71,0,0,1-.25,4.39Q44,44.61,37.76,52.66c-1.18,1.52-2.3,1.55-3.45,0-2.4-3.2-2.63-3.6-5-6.83a3.64,3.64,0,0,1,0-4.14,1.79,1.79,0,0,1,3.08,0c1.73,2.3,1.28,1.82,3,4.15A6.76,6.76,0,0,1,35.88,47Z"/></g></g></svg>