<svg id="Layer_1" data-name="Layer 1" xmlns="http://www.w3.org/2000/svg" viewBox="0 0 80 80"><defs><style>.cls-1{fill:#e6e6e5;}</style></defs><title>usuario</title><g id="longin"><path id="Fill-1" class="cls-1" d="M17.09,61.76A10.57,10.57,0,0,0,15.24,63a39.71,39.71,0,0,0,49.52.13,10.38,10.38,0,0,0-2-1.31L50.41,55.91a4.51,4.51,0,0,1-2.6-4V47.21A17.81,17.81,0,0,0,49,45.77a27,27,0,0,0,3.82-7.43,3.75,3.75,0,0,0,2.76-3.54v-5a3.63,3.63,0,0,0-1.3-2.75V19.9S55.8,8.73,40.07,8.73,25.89,19.9,25.89,19.9v7.18a3.63,3.63,0,0,0-1.3,2.75v5a3.71,3.71,0,0,0,1.79,3.12A24.3,24.3,0,0,0,31,47.21v4.54a4.5,4.5,0,0,1-2.45,4Z"/></g></svg>