<svg id="Layer_1" data-name="Layer 1" xmlns="http://www.w3.org/2000/svg" viewBox="0 0 80 80"><defs><style>.cls-1{fill:#1d1b50;}.cls-2{fill:#4683c4;}</style></defs><title>UX-UI-Icon_4</title><path class="cls-1" d="M40,71.79A31.56,31.56,0,1,1,71.51,40.24,31.58,31.58,0,0,1,40,71.79Zm0-60.28A28.73,28.73,0,1,0,68.69,40.24,28.76,28.76,0,0,0,40,11.51Z"/><path class="cls-2" d="M50.73,54.22a1.42,1.42,0,0,1-1.07-.49L38.84,41.16a1.41,1.41,0,0,1-.34-.92V22.65a1.41,1.41,0,0,1,2.82,0V39.71L51.8,51.89a1.41,1.41,0,0,1-1.07,2.33Z"/><path class="cls-2" d="M57.44,58.9a1.16,1.16,0,0,1-.83-.35l-1.08-1.08a1.17,1.17,0,1,1,1.66-1.66l1.08,1.08a1.18,1.18,0,0,1-.83,2Z"/><path class="cls-2" d="M23.55,25a1.16,1.16,0,0,1-.83-.34l-1.08-1.08a1.18,1.18,0,0,1,1.66-1.67L24.38,23a1.17,1.17,0,0,1-.83,2Z"/><path class="cls-2" d="M64.59,41.46H63.18a1.18,1.18,0,0,1,0-2.35h1.41a1.18,1.18,0,1,1,0,2.35Z"/><path class="cls-2" d="M16.87,41.46H15.22a1.18,1.18,0,1,1,0-2.35h1.65a1.18,1.18,0,0,1,0,2.35Z"/><path class="cls-2" d="M56.36,25a1.19,1.19,0,0,1-.84-.34,1.2,1.2,0,0,1,0-1.67l1.08-1.08a1.2,1.2,0,0,1,1.67,0,1.18,1.18,0,0,1,0,1.67l-1.08,1.08A1.16,1.16,0,0,1,56.36,25Z"/><path class="cls-2" d="M22.47,58.9a1.18,1.18,0,0,1-.83-2l1.08-1.08a1.17,1.17,0,0,1,1.66,1.66L23.3,58.55A1.18,1.18,0,0,1,22.47,58.9Z"/><path class="cls-2" d="M39.91,18.19A1.18,1.18,0,0,1,38.73,17V15.6a1.18,1.18,0,1,1,2.35,0V17A1.17,1.17,0,0,1,39.91,18.19Z"/><path class="cls-2" d="M39.91,66.15A1.18,1.18,0,0,1,38.73,65V63.33a1.18,1.18,0,1,1,2.35,0V65A1.17,1.17,0,0,1,39.91,66.15Z"/></svg>