<svg id="Layer_1" data-name="Layer 1" xmlns="http://www.w3.org/2000/svg" viewBox="0 0 80 80"><defs><style>.cls-1{fill:#4683c4;}.cls-2{fill:#1d1b50;}</style></defs><title>UX-UI-Icon_16</title><path class="cls-1" d="M24.12,26.36h-14a1.59,1.59,0,0,1-1.59-1.59v-14a1.59,1.59,0,0,1,1.59-1.59h14a1.59,1.59,0,0,1,1.59,1.59V24.77A1.59,1.59,0,0,1,24.12,26.36ZM11.67,23.18H22.53V12.31H11.67Z"/><path class="cls-1" d="M47.44,26.36h-14a1.59,1.59,0,0,1-1.59-1.59v-14A1.59,1.59,0,0,1,33.4,9.13h14A1.59,1.59,0,0,1,49,10.72V24.77A1.59,1.59,0,0,1,47.44,26.36ZM35,23.18H45.85V12.31H35Z"/><path class="cls-2" d="M70.76,26.36h-14a1.59,1.59,0,0,1-1.59-1.59v-14a1.59,1.59,0,0,1,1.59-1.59h14a1.59,1.59,0,0,1,1.59,1.59V24.77A1.59,1.59,0,0,1,70.76,26.36ZM58.31,23.18H69.17V12.31H58.31Z"/><path class="cls-1" d="M24.12,49.15h-14a1.59,1.59,0,0,1-1.59-1.59V33.51a1.59,1.59,0,0,1,1.59-1.59h14a1.59,1.59,0,0,1,1.59,1.59V47.56A1.59,1.59,0,0,1,24.12,49.15ZM11.67,46H22.53V35.1H11.67Z"/><path class="cls-1" d="M47.44,49.15h-14a1.59,1.59,0,0,1-1.59-1.59V33.51a1.59,1.59,0,0,1,1.59-1.59h14A1.59,1.59,0,0,1,49,33.51V47.56A1.59,1.59,0,0,1,47.44,49.15ZM35,46H45.85V35.1H35Z"/><path class="cls-2" d="M70.76,49.15h-14a1.59,1.59,0,0,1-1.59-1.59V33.51a1.59,1.59,0,0,1,1.59-1.59h14a1.59,1.59,0,0,1,1.59,1.59V47.56A1.59,1.59,0,0,1,70.76,49.15ZM58.31,46H69.17V35.1H58.31Z"/><path class="cls-2" d="M24.12,71.94h-14a1.59,1.59,0,0,1-1.59-1.59v-14a1.59,1.59,0,0,1,1.59-1.59h14a1.59,1.59,0,0,1,1.59,1.59v14A1.59,1.59,0,0,1,24.12,71.94ZM11.67,68.76H22.53V57.89H11.67Z"/><path class="cls-2" d="M47.44,71.94h-14a1.59,1.59,0,0,1-1.59-1.59v-14a1.59,1.59,0,0,1,1.59-1.59h14A1.59,1.59,0,0,1,49,56.3v14A1.59,1.59,0,0,1,47.44,71.94ZM35,68.76H45.85V57.89H35Z"/><path class="cls-2" d="M70.76,71.94h-14a1.59,1.59,0,0,1-1.59-1.59v-14a1.59,1.59,0,0,1,1.59-1.59h14a1.59,1.59,0,0,1,1.59,1.59v14A1.59,1.59,0,0,1,70.76,71.94ZM58.31,68.76H69.17V57.89H58.31Z"/></svg>