<svg id="Layer_1" data-name="Layer 1" xmlns="http://www.w3.org/2000/svg" viewBox="0 0 80 80"><defs><style>.cls-1{fill:#1d1b50;}.cls-2{fill:#4683c4;}</style></defs><title>UX-UI-Icon_11</title><path class="cls-1" d="M40.32,72.16A31.69,31.69,0,1,1,72,40.48,31.72,31.72,0,0,1,40.32,72.16Zm0-60.53A28.85,28.85,0,1,0,69.17,40.48,28.89,28.89,0,0,0,40.32,11.63Z"/><path class="cls-2" d="M40.32,53.63a18.45,18.45,0,0,1-13.1-5.41h0l-6.73-6.74a1.4,1.4,0,0,1,0-2l6.73-6.74a18.54,18.54,0,0,1,26.19,0l6.73,6.74a1.4,1.4,0,0,1,0,2l-6.73,6.74A18.45,18.45,0,0,1,40.32,53.63ZM29.23,46.21a15.69,15.69,0,0,0,22.18,0l5.73-5.73-5.73-5.73a15.69,15.69,0,0,0-22.18,0l-5.74,5.73Z"/><path class="cls-2" d="M40.32,47.28a7.22,7.22,0,1,1,7.22-7.22A7.23,7.23,0,0,1,40.32,47.28Zm0-11.61a4.39,4.39,0,1,0,4.38,4.39A4.4,4.4,0,0,0,40.32,35.67Z"/></svg>