<svg id="Layer_1" data-name="Layer 1" xmlns="http://www.w3.org/2000/svg" viewBox="0 0 80 80"><defs><style>.cls-1{fill:#4683c4;}.cls-2{fill:#1d1b50;}</style></defs><title>UX-UI-Icon_5</title><path class="cls-1" d="M42.84,71.75a1.54,1.54,0,1,1,0-3.08A14.66,14.66,0,0,0,57.48,54V38.25a2.51,2.51,0,0,0-5,0,1.54,1.54,0,0,1-3.08,0,2.51,2.51,0,0,0-5,0,1.54,1.54,0,1,1-3.08,0,2.51,2.51,0,0,0-5,0,1.54,1.54,0,1,1-3.07,0v-13a2.51,2.51,0,1,0-5,0v21.9a1.54,1.54,0,1,1-3.07,0V25.23a5.58,5.58,0,1,1,11.16,0v8a5.47,5.47,0,0,1,2.51-.6,5.59,5.59,0,0,1,4.05,1.74,5.57,5.57,0,0,1,8.09,0,5.58,5.58,0,0,1,9.63,3.84V54A17.74,17.74,0,0,1,42.84,71.75Z"/><path class="cls-1" d="M21.92,50.83a1.54,1.54,0,0,1-1.54-1.54v-7A5.59,5.59,0,0,1,26,36.65a1.54,1.54,0,1,1,0,3.08,2.51,2.51,0,0,0-2.51,2.51v7A1.53,1.53,0,0,1,21.92,50.83Z"/><path class="cls-1" d="M42.84,44.07a1.54,1.54,0,0,1-1.54-1.54V38.25a1.54,1.54,0,0,1,3.08,0v4.28A1.54,1.54,0,0,1,42.84,44.07Z"/><path class="cls-1" d="M34.71,44.07a1.54,1.54,0,0,1-1.53-1.54V37.77a1.54,1.54,0,1,1,3.07,0v4.76A1.54,1.54,0,0,1,34.71,44.07Z"/><path class="cls-1" d="M50.93,44.07a1.54,1.54,0,0,1-1.54-1.54V38.25a1.54,1.54,0,0,1,3.08,0v4.28A1.54,1.54,0,0,1,50.93,44.07Z"/><path class="cls-1" d="M42.84,71.75A22.48,22.48,0,0,1,20.38,49.29a1.54,1.54,0,1,1,3.07,0A19.41,19.41,0,0,0,42.84,68.67a1.54,1.54,0,1,1,0,3.08Z"/><path class="cls-2" d="M26.33,16.37a1.17,1.17,0,0,1-.84-.34L23,13.49a1.17,1.17,0,1,1,1.66-1.66l2.54,2.53a1.18,1.18,0,0,1,0,1.67A1.16,1.16,0,0,1,26.33,16.37Z"/><path class="cls-2" d="M40.46,20.85H37a1.18,1.18,0,1,1,0-2.35h3.47a1.18,1.18,0,1,1,0,2.35Z"/><path class="cls-2" d="M24.31,20.85H20.84a1.18,1.18,0,1,1,0-2.35h3.47a1.18,1.18,0,1,1,0,2.35Z"/><path class="cls-2" d="M35,16.37a1.16,1.16,0,0,1-.83-.34,1.18,1.18,0,0,1,0-1.67l2.54-2.53a1.17,1.17,0,1,1,1.66,1.66L35.86,16A1.17,1.17,0,0,1,35,16.37Z"/><path class="cls-2" d="M30.65,14.51a1.18,1.18,0,0,1-1.18-1.18V9.86a1.18,1.18,0,1,1,2.35,0v3.47A1.17,1.17,0,0,1,30.65,14.51Z"/></svg>