<svg id="Layer_1" data-name="Layer 1" xmlns="http://www.w3.org/2000/svg" viewBox="0 0 80 80"><defs><style>.cls-1{fill:#1d1b50;}.cls-2{fill:#4683c4;}</style></defs><title>UX-UI-Icon_34</title><path class="cls-1" d="M23.7,37.87A13.83,13.83,0,1,1,37.53,24,13.84,13.84,0,0,1,23.7,37.87ZM23.7,13A11.09,11.09,0,1,0,34.8,24,11.1,11.1,0,0,0,23.7,13Z"/><path class="cls-1" d="M56.76,37.87A13.83,13.83,0,1,1,70.59,24,13.85,13.85,0,0,1,56.76,37.87Zm0-24.92A11.09,11.09,0,1,0,67.85,24,11.1,11.1,0,0,0,56.76,13Z"/><path class="cls-2" d="M56.76,30.38A6.34,6.34,0,1,1,63.1,24,6.35,6.35,0,0,1,56.76,30.38Zm0-9.94a3.6,3.6,0,1,0,3.6,3.6A3.6,3.6,0,0,0,56.76,20.44Z"/><path class="cls-1" d="M23.7,70.8A13.83,13.83,0,1,1,37.53,57,13.84,13.84,0,0,1,23.7,70.8Zm0-24.92A11.09,11.09,0,1,0,34.8,57,11.1,11.1,0,0,0,23.7,45.88Z"/><path class="cls-2" d="M23.7,63.31A6.34,6.34,0,1,1,30,57,6.35,6.35,0,0,1,23.7,63.31Zm0-9.94A3.6,3.6,0,1,0,27.31,57,3.6,3.6,0,0,0,23.7,53.37Z"/><path class="cls-1" d="M56.76,70.8A13.83,13.83,0,1,1,70.59,57,13.85,13.85,0,0,1,56.76,70.8Zm0-24.92A11.09,11.09,0,1,0,67.85,57,11.1,11.1,0,0,0,56.76,45.88Z"/><path class="cls-2" d="M56.76,63.31A6.34,6.34,0,1,1,63.1,57,6.35,6.35,0,0,1,56.76,63.31Zm0-9.94a3.6,3.6,0,1,0,3.6,3.6A3.6,3.6,0,0,0,56.76,53.37Z"/><path class="cls-2" d="M23.7,29.27h0a1.34,1.34,0,0,1-1-.41l-5.67-5.79a1.37,1.37,0,0,1,2-1.91L23.72,26,36.59,13.18a1.36,1.36,0,1,1,1.92,1.94L24.67,28.88A1.39,1.39,0,0,1,23.7,29.27Z"/></svg>