<svg id="Layer_1" data-name="Layer 1" xmlns="http://www.w3.org/2000/svg" viewBox="0 0 80 80"><defs><style>.cls-1{fill:#4683c4;}.cls-2{fill:#1d1b50;}</style></defs><title>UX-UI-Icon_14</title><path class="cls-1" d="M31.54,71.32A1.38,1.38,0,0,1,30.17,70L28.28,24.58A1.38,1.38,0,0,1,31,24.46l1.89,45.43a1.38,1.38,0,0,1-1.32,1.43Z"/><path class="cls-1" d="M50.38,71.32h-.06A1.37,1.37,0,0,1,49,69.89L50.9,24.46a1.37,1.37,0,1,1,2.74.12L51.75,70A1.38,1.38,0,0,1,50.38,71.32Z"/><path class="cls-1" d="M40.64,71.29a1.37,1.37,0,0,1-1.37-1.37V24.61a1.38,1.38,0,1,1,2.75,0V69.92A1.38,1.38,0,0,1,40.64,71.29Z"/><path class="cls-1" d="M47.28,17.28a1.37,1.37,0,0,1-1.37-1.37V13.73a1.2,1.2,0,0,0-1.09-1.25H37.11a1.16,1.16,0,0,0-1,1.25v2.18a1.38,1.38,0,0,1-2.75,0V13.73a3.9,3.9,0,0,1,3.79-4h7.71a3.92,3.92,0,0,1,3.83,4v2.18A1.37,1.37,0,0,1,47.28,17.28Z"/><path class="cls-2" d="M64.16,25.52H18a4.17,4.17,0,0,1-4.17-4.17v-.81A4.17,4.17,0,0,1,18,16.37H64.16a4.17,4.17,0,0,1,4.17,4.17v.81A4.17,4.17,0,0,1,64.16,25.52ZM18,19.11a1.44,1.44,0,0,0-1.43,1.43v.81A1.43,1.43,0,0,0,18,22.77H64.16a1.43,1.43,0,0,0,1.43-1.42v-.81a1.43,1.43,0,0,0-1.43-1.43Z"/><path class="cls-2" d="M56.24,72H25.69a4.7,4.7,0,0,1-4.56-4s0,0,0-.08L17.51,24.49a1.37,1.37,0,0,1,.36-1,1.34,1.34,0,0,1,1-.45H63.05a1.36,1.36,0,0,1,1,.45,1.37,1.37,0,0,1,.36,1L60.81,67.91a.25.25,0,0,0,0,.08A4.71,4.71,0,0,1,56.24,72ZM23.85,67.64a2,2,0,0,0,1.84,1.59H56.24a2,2,0,0,0,1.83-1.59l3.49-41.89H20.37Z"/></svg>