<svg id="Layer_1" data-name="Layer 1" xmlns="http://www.w3.org/2000/svg" viewBox="0 0 80 80"><defs><style>.cls-1{fill:#1d1b50;}.cls-2{fill:#4683c4;}</style></defs><title>UX-UI-Icon_17</title><path class="cls-1" d="M39.82,67.5A28.7,28.7,0,0,1,19.37,59L8.56,48.22a1.45,1.45,0,0,1,0-2.06L19.37,35.34a28.92,28.92,0,0,1,40.9,0L71.08,46.16a1.45,1.45,0,0,1,0,2.06L60.27,59A28.72,28.72,0,0,1,39.82,67.5ZM11.65,47.19,21.43,57h0a26,26,0,0,0,36.78,0L68,47.19,58.21,37.4a26,26,0,0,0-36.78,0Z"/><path class="cls-2" d="M29.46,25.56a1.47,1.47,0,0,1-1-.43l-5.68-5.68a1.46,1.46,0,0,1,2.06-2.06l5.68,5.68a1.45,1.45,0,0,1,0,2.06A1.47,1.47,0,0,1,29.46,25.56Z"/><path class="cls-2" d="M50.18,25.56a1.47,1.47,0,0,1-1-.43,1.45,1.45,0,0,1,0-2.06l5.68-5.68a1.46,1.46,0,0,1,2.06,2.06l-5.68,5.68A1.47,1.47,0,0,1,50.18,25.56Z"/><path class="cls-2" d="M39.77,21.33a1.47,1.47,0,0,1-1.46-1.46v-8a1.46,1.46,0,0,1,2.92,0v8A1.46,1.46,0,0,1,39.77,21.33Z"/><path class="cls-2" d="M39.82,57.3A10.78,10.78,0,1,1,50.6,46.52,10.8,10.8,0,0,1,39.82,57.3Zm0-18.64a7.86,7.86,0,1,0,7.86,7.86A7.86,7.86,0,0,0,39.82,38.66Z"/></svg>