<svg id="Layer_1" data-name="Layer 1" xmlns="http://www.w3.org/2000/svg" viewBox="0 0 80 80"><defs><style>.cls-1{fill:#1d1b50;}.cls-2{fill:#4683c4;}</style></defs><title>ver_otros</title><g id="Seccion-Productos-recomendados"><g id="Group-6-Copy"><g id="Group-22"><g id="UX-UI-Icon_41" data-name="UX-UI-Icon 41"><path id="Shape" class="cls-1" d="M40,72.1a32,32,0,1,1,32-32A32.05,32.05,0,0,1,40,72.1Zm0-61.18A29.16,29.16,0,1,0,69.14,40.08,29.19,29.19,0,0,0,40,10.92Z"/><g id="Group"><path id="Shape-2" data-name="Shape" class="cls-2" d="M55.67,38.2a1.43,1.43,0,0,1-1.4-1.14,14.73,14.73,0,0,0-28.83,0,1.43,1.43,0,0,1-2.8-.58,17.59,17.59,0,0,1,34.43,0A1.43,1.43,0,0,1,56,38.17,1.36,1.36,0,0,1,55.67,38.2Z"/><path id="Shape-3" data-name="Shape" class="cls-2" d="M23.92,38.37a1.46,1.46,0,0,1-1.32-.87L20,31.29a1.43,1.43,0,1,1,2.63-1.12l2.09,4.89L29.57,33a1.43,1.43,0,1,1,1.12,2.63l-6.21,2.65A1.55,1.55,0,0,1,23.92,38.37Z"/><path id="Shape-4" data-name="Shape" class="cls-2" d="M39.85,57.67a17.64,17.64,0,0,1-17.21-14,1.43,1.43,0,0,1,2.8-.58,14.73,14.73,0,0,0,28.83,0,1.43,1.43,0,0,1,2.8.58A17.64,17.64,0,0,1,39.85,57.67Z"/><path id="Shape-5" data-name="Shape" class="cls-2" d="M58.43,50.86A1.42,1.42,0,0,1,57.12,50L55,45.1l-4.89,2.08A1.43,1.43,0,1,1,49,44.55l6.21-2.65a1.44,1.44,0,0,1,1.88.76l2.64,6.21A1.43,1.43,0,0,1,59,50.75,1.36,1.36,0,0,1,58.43,50.86Z"/></g></g></g></g></g></svg>